<svg xmlns="http://www.w3.org/2000/svg" viewBox="0 0 500 500"><g id="freepik--Shadow--inject-200"><polygon id="freepik--shadow--inject-200" points="254.29 338.2 104.44 424.72 225.75 494.76 375.61 408.24 254.29 338.2" style="fill:#e0e0e0"></polygon></g><g id="freepik--Tile--inject-200"><g id="freepik--tile--inject-200"><polygon points="475.44 341.49 451.07 327.42 451.07 355.56 475.44 369.63 475.44 341.49" style="fill:#f5f5f5"></polygon><polygon points="447.01 325.07 422.64 311 422.64 339.14 447.01 353.21 447.01 325.07" style="fill:#f5f5f5"></polygon><polygon points="418.57 308.66 394.2 294.58 394.2 322.73 418.58 336.8 418.57 308.66" style="fill:#f5f5f5"></polygon><polygon points="390.14 292.24 365.77 278.17 365.77 306.31 390.14 320.38 390.14 292.24" style="fill:#f5f5f5"></polygon><polygon points="361.71 275.82 337.33 261.75 337.33 289.89 361.71 303.96 361.71 275.82" style="fill:#f5f5f5"></polygon><polygon points="333.27 259.4 308.9 245.33 308.9 273.48 333.27 287.55 333.27 259.4" style="fill:#f5f5f5"></polygon><polygon points="304.84 242.99 280.47 228.92 280.47 257.06 304.84 271.13 304.84 242.99" style="fill:#f5f5f5"></polygon><polygon points="276.4 226.57 252.03 212.5 252.03 240.64 276.4 254.72 276.4 226.57" style="fill:#f5f5f5"></polygon><polygon points="247.97 210.16 223.6 196.08 223.6 224.23 247.97 238.3 247.97 210.16" style="fill:#f5f5f5"></polygon><polygon points="475.44 374.32 451.07 360.25 451.07 388.39 475.44 402.46 475.44 374.32" style="fill:#f5f5f5"></polygon><polygon points="447.01 357.9 422.64 343.83 422.64 371.98 447.01 386.05 447.01 357.9" style="fill:#f5f5f5"></polygon><polygon points="418.57 341.49 394.2 327.42 394.2 355.56 418.58 369.63 418.57 341.49" style="fill:#f5f5f5"></polygon><polygon points="390.14 325.07 365.77 311 365.77 339.14 390.14 353.21 390.14 325.07" style="fill:#f5f5f5"></polygon><polygon points="361.71 308.65 337.33 294.58 337.33 322.73 361.71 336.8 361.71 308.65" style="fill:#f5f5f5"></polygon><polygon points="333.27 292.24 308.9 278.17 308.9 306.31 333.27 320.38 333.27 292.24" style="fill:#f5f5f5"></polygon><polygon points="304.84 275.82 280.47 261.75 280.47 289.89 304.84 303.96 304.84 275.82" style="fill:#f5f5f5"></polygon><polygon points="276.4 259.4 252.03 245.33 252.03 273.48 276.4 287.55 276.4 259.4" style="fill:#f5f5f5"></polygon><polygon points="247.97 242.99 223.6 228.92 223.6 257.06 247.97 271.13 247.97 242.99" style="fill:#f5f5f5"></polygon><polygon points="24.56 311 48.93 296.93 48.93 325.07 24.56 339.14 24.56 311" style="fill:#ebebeb"></polygon><polygon points="52.99 294.58 77.36 280.51 77.36 308.66 52.99 322.73 52.99 294.58" style="fill:#ebebeb"></polygon><polygon points="81.42 278.17 105.8 264.1 105.8 292.24 81.42 306.31 81.42 278.17" style="fill:#ebebeb"></polygon><polygon points="109.86 261.75 134.23 247.68 134.23 275.82 109.86 289.89 109.86 261.75" style="fill:#ebebeb"></polygon><polygon points="138.29 245.34 162.67 231.26 162.67 259.41 138.29 273.48 138.29 245.34" style="fill:#ebebeb"></polygon><polygon points="166.73 228.92 191.1 214.85 191.1 242.99 166.73 257.06 166.73 228.92" style="fill:#ebebeb"></polygon><polygon points="195.16 212.5 219.53 198.43 219.53 226.57 195.16 240.64 195.16 212.5" style="fill:#ebebeb"></polygon><polygon points="24.56 343.83 48.93 329.76 48.93 357.91 24.56 371.98 24.56 343.83" style="fill:#ebebeb"></polygon><polygon points="52.99 327.42 77.36 313.35 77.36 341.49 52.99 355.56 52.99 327.42" style="fill:#ebebeb"></polygon><polygon points="81.42 311 105.8 296.93 105.8 325.07 81.42 339.14 81.42 311" style="fill:#ebebeb"></polygon><polygon points="109.86 294.58 134.23 280.51 134.23 308.66 109.86 322.73 109.86 294.58" style="fill:#ebebeb"></polygon><polygon points="138.29 278.17 162.67 264.1 162.67 292.24 138.29 306.31 138.29 278.17" style="fill:#ebebeb"></polygon><polygon points="166.73 261.75 191.1 247.68 191.1 275.82 166.73 289.89 166.73 261.75" style="fill:#ebebeb"></polygon><polygon points="195.16 245.33 219.53 231.26 219.53 259.41 195.16 273.48 195.16 245.33" style="fill:#ebebeb"></polygon></g></g><g id="freepik--Hanger--inject-200"><g id="freepik--hanger--inject-200"><path d="M365.15,266.15a6.1,6.1,0,0,0,3-.92,13.79,13.79,0,0,0,6.33-11v-4.5a.74.74,0,0,0-1.47,0v4.5a12.38,12.38,0,0,1-5.59,9.68c-1.36.78-2.59.93-3.48.42a3.51,3.51,0,0,1-1.38-3.22.73.73,0,1,0-1.46,0c0,2.11.75,3.7,2.11,4.49A3.82,3.82,0,0,0,365.15,266.15Z" style="fill:#455a64"></path><path d="M359.19,259.32a2.66,2.66,0,1,0,2.66-2.66A2.66,2.66,0,0,0,359.19,259.32Z" style="fill:#37474f"></path><path d="M393.39,304.16a.78.78,0,0,0,.36-.1l20.31-11.7a13.76,13.76,0,0,0,6.33-10.95v-4.49a.74.74,0,1,0-1.47,0v4.49a12.38,12.38,0,0,1-5.59,9.68l-19.94,11.49-32-18.49L380.58,273a13.78,13.78,0,0,0,6.32-10.95v-4.5a.73.73,0,1,0-1.46,0v4.5a12.38,12.38,0,0,1-5.59,9.68l-20.31,11.7a.72.72,0,0,0-.37.63.75.75,0,0,0,.37.64L393,304.06A.79.79,0,0,0,393.39,304.16Z" style="fill:#455a64"></path><path d="M413.7,292.46a.71.71,0,0,0,.63-.37.74.74,0,0,0-.27-1l-33.48-19.33a.73.73,0,0,0-.73,1.27l33.48,19.33A.71.71,0,0,0,413.7,292.46Z" style="fill:#455a64"></path><path d="M393.39,304.16a.78.78,0,0,0,.36-.1l20.31-11.7a.73.73,0,0,0-.73-1.27L393,302.79a.73.73,0,0,0,.37,1.37Z" style="fill:#455a64"></path><path d="M387.81,300.93a.74.74,0,0,0,.37-.1l20.31-11.69a.73.73,0,1,0-.73-1.27l-20.32,11.69a.75.75,0,0,0-.27,1A.75.75,0,0,0,387.81,300.93Z" style="fill:#455a64"></path><path d="M382.23,297.71a.71.71,0,0,0,.37-.1l20.31-11.7a.73.73,0,0,0-.73-1.27l-20.31,11.7a.73.73,0,0,0-.27,1A.71.71,0,0,0,382.23,297.71Z" style="fill:#455a64"></path><path d="M376.66,294.48a.68.68,0,0,0,.36-.1l20.32-11.69a.73.73,0,0,0,.27-1,.75.75,0,0,0-1-.27l-20.31,11.69a.73.73,0,0,0,.37,1.37Z" style="fill:#455a64"></path><path d="M371.08,291.26a.71.71,0,0,0,.37-.1l20.31-11.69a.75.75,0,0,0,.27-1,.73.73,0,0,0-1-.26l-20.31,11.69a.73.73,0,0,0-.27,1A.71.71,0,0,0,371.08,291.26Z" style="fill:#455a64"></path><path d="M365.51,288a.77.77,0,0,0,.36-.09l20.31-11.7a.73.73,0,1,0-.73-1.27l-20.31,11.7a.73.73,0,0,0-.27,1A.74.74,0,0,0,365.51,288Z" style="fill:#455a64"></path><path d="M359.93,284.81a.68.68,0,0,0,.36-.1L380.61,273a.73.73,0,1,0-.74-1.27l-20.31,11.69a.73.73,0,0,0,.37,1.37Z" style="fill:#455a64"></path><g id="freepik--Sponge--inject-200"><path d="M427,301.93a6.11,6.11,0,0,0,3-.92,13.78,13.78,0,0,0,6.32-10.95v-4.49a.73.73,0,1,0-1.46,0v4.49a12.38,12.38,0,0,1-5.59,9.68c-1.36.78-2.59.93-3.48.42s-1.38-1.66-1.38-3.22a.73.73,0,1,0-1.46,0c0,2.11.74,3.7,2.11,4.49A3.78,3.78,0,0,0,427,301.93Z" style="fill:#455a64"></path><path d="M421,295.1a2.66,2.66,0,1,0,2.66-2.66A2.65,2.65,0,0,0,421,295.1Z" style="fill:#37474f"></path></g><g id="freepik--Soap--inject-200"><path d="M367.34,273a9.88,9.88,0,0,1,1.17-1.65,10.1,10.1,0,0,1,2.56-2,17.94,17.94,0,0,1,5.66-2s0,0,.09,0c5.21-1,11.25-.28,15.47,2.15l10.12,5.85,1.94,1.11a11.41,11.41,0,0,1,2.74,2.15c.23.27.43.51.62.78a11.52,11.52,0,0,1,2.26,6.9,11.73,11.73,0,0,1-2.1,6.72c-.1.13-.18.27-.29.39a6,6,0,0,1-.41.5c-.16.18-.33.37-.53.56a12.9,12.9,0,0,1-2.09,1.5,17.86,17.86,0,0,1-5.77,2,26.13,26.13,0,0,1-4.88.43,19.56,19.56,0,0,1-13.46-6,17.84,17.84,0,0,0-2-1.71,9.46,9.46,0,0,0-5.29-2,7,7,0,0,1-5.6-3.29l0,0a11.62,11.62,0,0,1-1.85-6.31A11.44,11.44,0,0,1,367.34,273Z" style="fill:#D97D54"></path><path d="M404.55,288.64c-5.81,3.35-15.31,3.3-21.22-.11l-12.07-7c-5.91-3.42-6-8.9-.2-12.25s15.31-3.3,21.22.11l12.07,7C410.27,279.8,410.35,285.29,404.55,288.64Z" style="fill:#D97D54"></path><path d="M404.55,288.64c-5.81,3.35-15.31,3.3-21.22-.11l-12.07-7c-5.91-3.42-6-8.9-.2-12.25s15.31-3.3,21.22.11l12.07,7C410.27,279.8,410.35,285.29,404.55,288.64Z" style="fill:#fff;opacity:0.2"></path><path d="M381.58,289c-.15,2.67,4.07,3,5.77,2.11a2.35,2.35,0,0,0,.9,2.25,3.53,3.53,0,0,0,2.84.6,2.19,2.19,0,0,0,1.6-1.1,3.59,3.59,0,0,0,1.94,1.84,2,2,0,0,0,1.65-.39,2.45,2.45,0,0,0,.87-1.48,1.57,1.57,0,0,0,1.07.75,2.62,2.62,0,0,0,1.33-.09,2.37,2.37,0,0,0,1.62-1.76,2.5,2.5,0,0,0,1.91,1,3.73,3.73,0,0,0,3.69-1.24,3.9,3.9,0,0,0,.3-3.77,2.28,2.28,0,0,0,2.26-2.26,2.49,2.49,0,0,0-3.19-2.43,3.7,3.7,0,0,0-3-2.38,3,3,0,0,0-2.5,1.11,1.87,1.87,0,0,1-3.27,1,2.92,2.92,0,0,0-1.27,2.51,2.81,2.81,0,0,0-2.75-.78,2.35,2.35,0,0,0-1.61,1,3.25,3.25,0,0,0-.69,2,4.5,4.5,0,0,0-1.12-1.14,4,4,0,0,0-4.31.41,4.18,4.18,0,0,0-.81,1.34,2.18,2.18,0,0,0-2.17-.69A1.76,1.76,0,0,0,381.58,289Zm-3.81-2.65a2.09,2.09,0,0,0,1.42.61,3.13,3.13,0,0,0,1.52-.34,2.27,2.27,0,0,0,.78-.59,1.49,1.49,0,0,0,.25-1.32,2.22,2.22,0,0,0-1.69-1.28,2.46,2.46,0,0,0-2.29.54A1.81,1.81,0,0,0,377.77,286.33Z" style="fill:#D97D54"></path><path d="M381.58,289c-.15,2.67,4.07,3,5.77,2.11a2.35,2.35,0,0,0,.9,2.25,3.53,3.53,0,0,0,2.84.6,2.19,2.19,0,0,0,1.6-1.1,3.59,3.59,0,0,0,1.94,1.84,2,2,0,0,0,1.65-.39,2.45,2.45,0,0,0,.87-1.48,1.57,1.57,0,0,0,1.07.75,2.62,2.62,0,0,0,1.33-.09,2.37,2.37,0,0,0,1.62-1.76,2.5,2.5,0,0,0,1.91,1,3.73,3.73,0,0,0,3.69-1.24,3.9,3.9,0,0,0,.3-3.77,2.28,2.28,0,0,0,2.26-2.26,2.49,2.49,0,0,0-3.19-2.43,3.7,3.7,0,0,0-3-2.38,3,3,0,0,0-2.5,1.11,1.87,1.87,0,0,1-3.27,1,2.92,2.92,0,0,0-1.27,2.51,2.81,2.81,0,0,0-2.75-.78,2.35,2.35,0,0,0-1.61,1,3.25,3.25,0,0,0-.69,2,4.5,4.5,0,0,0-1.12-1.14,4,4,0,0,0-4.31.41,4.18,4.18,0,0,0-.81,1.34,2.18,2.18,0,0,0-2.17-.69A1.76,1.76,0,0,0,381.58,289Zm-3.81-2.65a2.09,2.09,0,0,0,1.42.61,3.13,3.13,0,0,0,1.52-.34,2.27,2.27,0,0,0,.78-.59,1.49,1.49,0,0,0,.25-1.32,2.22,2.22,0,0,0-1.69-1.28,2.46,2.46,0,0,0-2.29.54A1.81,1.81,0,0,0,377.77,286.33Z" style="fill:#fff;opacity:0.8"></path></g><path d="M457.78,281.69a1,1,0,0,0-1-.09l-11.31,6.52L367.17,243l9.3-5.37a1,1,0,0,0,.42-.92,3.13,3.13,0,0,0-1.41-2.45,1,1,0,0,0-1-.1L362.58,241h0l-1,.57-.07.06a1.58,1.58,0,0,0-.76,1.34,1.6,1.6,0,0,0,.76,1.35.18.18,0,0,0,.07.05l1,.57h0l82.26,47.44h0a1,1,0,0,0,1,.09l12.89-7.43a1,1,0,0,0,.43-.92A3.14,3.14,0,0,0,457.78,281.69Z" style="fill:#455a64"></path></g></g><g id="freepik--Mirror--inject-200"><g id="freepik--mirror--inject-200"><polygon points="454.12 257.06 351.81 197.99 351.81 46.9 454.12 105.97 454.12 257.06" style="fill:#fafafa"></polygon><polygon points="459.24 254.62 454.12 257.06 454.12 105.97 459.24 103.53 459.24 254.62" style="fill:#37474f"></polygon><polygon points="351.81 46.9 356.93 44.46 459.24 103.53 454.12 105.97 351.81 46.9" style="fill:#455a64"></polygon><g style="opacity:0.1"><polygon points="454.12 125.17 454.12 136.14 430.99 92.61 439.4 97.47 454.12 125.17" style="fill:#D97D54"></polygon><polygon points="401.82 75.77 419.64 86.06 454.12 150.95 454.12 174.18 401.82 75.77" style="fill:#D97D54"></polygon><polygon points="351.81 49.57 352.96 49.11 454.12 239.46 454.12 257.06 444.62 251.58 351.81 76.94 351.81 49.57" style="fill:#D97D54"></polygon><polygon points="367.78 56.12 376.19 60.98 454.12 207.61 454.12 218.58 367.78 56.12" style="fill:#D97D54"></polygon><polygon points="351.81 172.35 351.81 142.36 394.46 222.62 371.47 209.34 351.81 172.35" style="fill:#D97D54"></polygon><polygon points="351.81 127.12 351.81 116.14 414.56 234.22 406.15 229.37 351.81 127.12" style="fill:#D97D54"></polygon></g><g id="freepik--Character--inject-200" style="opacity:0.2"><g id="freepik--Hair--inject-200"><path d="M454.12,174.89V200a27.22,27.22,0,0,1-6.55,1.57,28.67,28.67,0,0,1-8.25-.33,29.28,29.28,0,0,1-6.12-1.82c-.65-.27-1.28-.57-1.91-.89-8.3-4.24-12.44-12.44-15.81-20.8l-.09-.24a48.5,48.5,0,0,1-2.88-10.76q-.25-1.78-.33-3.48c-.09-2,1.18-4.84.3-6.83a4.2,4.2,0,0,0-1.63-1.65,16.91,16.91,0,0,0-2.27-1.23c-1.16-.55-2.31-1-3.07-1.45-1.35-.76-3.11-1.66-4.88-2.7-2.87-1.7-5.75-3.8-6.85-6.35l-.09-.22c-.31-.71-.61-1.45-.92-2.19a20.49,20.49,0,0,0-3-5.55,21,21,0,0,0-4.11-3.53l0,0c-.37-.26-.74-.52-1.11-.8s-1-.72-1.46-1.1l-7.14-5.79,0,0c-8.7-6.31-11.41-19.42-8.3-25.07.12-.22.25-.44.38-.65,7.37-12.49,24.17-14.77,33.2-13.92,17.43,1.64,25.61,7.49,26.8,17,5.34.81,8.26,3.83,10.84,8.1,3.15,5.24,4.05,14.52,2.42,20.25-.88,3.06-1.81,6.17-.76,9.5,1.2,3.8,4.74,5.91,7.24,8.73s4.86,6.92,4.31,10.77-3.72,6.65-2.13,10.83a10.36,10.36,0,0,0,1.91,3c.35.43.74.84,1.14,1.25,0,0,0,0,0,0Z" style="fill:#37474f"></path><path d="M394.93,103.39c-.82-8.67-9.52-15.44-20.35-10.78s-10.69,17.56-7.32,24.79-5.56,11.38-5.93,18.64,6.74,12.85,3.53,16.68-7.16-.73-6.17-3.24c-2.37,1.93-1.64,6,1.18,8a8.8,8.8,0,0,0,7.9,1.2c-4.84,3.94-8.87,6.2-8.78,11.78s5.2,11.36,13.77,12.07,25.54-1.46,28.47-8.77S394.93,103.39,394.93,103.39Z" style="fill:#263238"></path></g><g id="freepik--Chest--inject-200"><g id="freepik--Arm--inject-200"><path d="M372.69,155.72a68.74,68.74,0,0,1,9.05,6.67L367.31,178l-2,2.21h0l-2.35,2.54h0L358,188.07l-.27-.31a2,2,0,0,0-.15-.18l-.62-.73-.92-1.09h0l-1-1.17c-.9-1.07-2-2.35-3.22-3.82v-43c3.47,3.48,7.32,7.32,11.33,11.32a21.91,21.91,0,0,0,2.47,2.1C367.39,152.5,369.62,153.87,372.69,155.72Z" style="fill:#ffbda7"></path><path d="M384.53,75.37a14,14,0,0,0-1.28,1.48c-.85,1.05-1.71,2.09-2.58,3.13-5.06,6-6.63,8.64-14.3,11.11-1.12.35-5.84,1.32-8.45,4.11-.8.87-3.19,3.77-6.11,7.37V71a30.81,30.81,0,0,1,13.72-16.13l13.8,8c-.08.1-.17.2-.25.31-2.28,2.9-6,7.56-6.39,11.44-.08.79,0,2.48,1.1,1.64a30.34,30.34,0,0,1,4.46-3.13,6.46,6.46,0,0,1,5.4-.36A2.62,2.62,0,0,1,385,73.82C385.35,74.58,385,75,384.53,75.37Z" style="fill:#ffbda7"></path><path d="M355,184.59A55.57,55.57,0,0,1,369.57,172l-2.26,6L358,188.07Z" style="fill:#f0997a"></path><path d="M369.14,77c-7.1,0-9.87,3.56-11.67,5.79,0,0,.92-4.1,4-5.63A8.74,8.74,0,0,1,369.14,77Z" style="fill:#f0997a"></path></g><path d="M439.32,201.27c-.92,3.27-2,6.91-3.31,10.77h0a2.17,2.17,0,0,1-.07.24l-.08.24c-.69,2.1-1.43,4.26-2.21,6.46-.28.81-.57,1.62-.86,2.44-3.47,9.69-5.71,14-7.21,19.14l-18.63-10.75-2.24-1.29L379.54,214l-2.34-1.35-24.65-14.23a20.48,20.48,0,0,1,3.95-11l.45-.61c1.35-1.81,2.64-3.53,3.9-5.18l2.31-3c1.55-2,3-3.78,4.47-5.44,5.42-6.27,10-10.22,14.11-10.87,3.68,2.75,11.49,3.42,20,3.71,3,.11,6.16.17,9.23.26l1.5.4c2.45.65,7.55,2,12.85,3.47h0l1.41.38c8,2.18,13.87,7.78,15.2,16.47C442.3,189.19,441.25,194.4,439.32,201.27Z" style="fill:#ffbda7"></path><path d="M436,212.06c-4.35-3.95-6.05-6.17-9.95-13.65.86,11.51,4.26,15.85,6.72,23Z" style="fill:#f0997a"></path><g id="freepik--Head--inject-200"><path d="M376.06,122c1.79-15.32,5.05-21.09,9-22.81s7.6.19,9.87,4.25c4.49-2.09,12.66-3.13,16.6,3.2,3,4.75,2.75,11.47,3.51,19.73.8,8.86,5.13,9.58,6.34,7.48s1.32-3.6,4.36-5.19c2.84-1.48,6.77.65,8.32,3.47,1.88,3.44,1.36,8.24-3,12.54-1.95,1.94-4.49,3.26-7.6,2.31a5.52,5.52,0,0,1-3.71-2.89s-.91,11.76-1.27,17.12,3.19,7.81,6.88,9.05c-1.26,6.11-22.12,12.95-33.81,9.34-8.49-2.62-10.79-13.06-9.82-17.16,7.16,4.15,10,.34,10.16-1.19s.47-5,.47-5c-5.76-.9-8.53-2.59-11.15-4.9C377.77,148.21,374.25,137.57,376.06,122Z" style="fill:#ffbda7"></path><path d="M399.55,125.17a2.9,2.9,0,0,0,3.14,1.74,1.9,1.9,0,0,0,1.75-2.45,2.92,2.92,0,0,0-3.15-1.73A1.88,1.88,0,0,0,399.55,125.17Z" style="fill:#263238"></path><path d="M402.21,122.74c1.59.22,2.47,2.52,4,1.81a2.14,2.14,0,0,1-3.13,1C402.4,125.05,402.21,122.74,402.21,122.74Z" style="fill:#263238"></path><path d="M380,116.35l5.48-2.24a3,3,0,1,0-5.48,2.24Z" style="fill:#263238"></path><path d="M386.19,122.89a2.51,2.51,0,0,1-3.28.87,2.26,2.26,0,0,1-1.47-2.9,2.51,2.51,0,0,1,3.28-.87A2.26,2.26,0,0,1,386.19,122.89Z" style="fill:#263238"></path><path d="M383.82,119.76c-1.59-.22-2.7,1.81-4.16.7a2.47,2.47,0,0,0,3,1.78C383.39,122,383.82,119.76,383.82,119.76Z" style="fill:#263238"></path><path d="M401.3,116.33l5.94,3.18a3.44,3.44,0,0,0-1.54-4.5A3.17,3.17,0,0,0,401.3,116.33Z" style="fill:#263238"></path><path d="M401.11,139.18l-8.53,1.51a4.78,4.78,0,0,0,5.75,3.62C400.66,143.8,401.62,141.68,401.11,139.18Z" style="fill:#b16668"></path><path d="M395.9,144.21a4.22,4.22,0,0,1,4.9-3.5,3.25,3.25,0,0,1,.42.11,3.57,3.57,0,0,1-2.89,3.49A4.85,4.85,0,0,1,395.9,144.21Z" style="fill:#f0997a"></path><polygon points="394.58 119.75 391.81 134.73 384.32 130.91 394.58 119.75" style="fill:#f0997a"></polygon><path d="M392.37,156.15a37.32,37.32,0,0,0,15-2.05c3.53-1.23,6.52-5.25,7.9-9A13.18,13.18,0,0,1,409,156.16c-6.13,3.73-16.95,3.52-16.95,3.52Z" style="fill:#f0997a"></path><path d="M427.8,142.5a1.86,1.86,0,0,1-2.16,1.76,2.28,2.28,0,0,1-1.88-2.38,1.86,1.86,0,0,1,2.16-1.75A2.27,2.27,0,0,1,427.8,142.5Z" style="fill:#fafafa"></path></g><path d="M377.2,212.65l-24.65-14.23-.74-.43v-5a22.88,22.88,0,0,1,4.21-7.22h0a24.87,24.87,0,0,1,4.51-4.2l.31.11a12.48,12.48,0,0,1,2.06,1.07h0C366.88,185.25,374.71,192.65,377.2,212.65Z" style="fill:#D97D54"></path><path d="M433.9,219.47l-7.35,21.67-1-.57-18.63-10.75-2.24-1.29L379.54,214c8.38-22,21.62-20.9,28.6-19.74,8,1.34,14.35,6,19.68,14.26h0s0,0,0,0c.78,1.21,1.54,2.49,2.28,3.86l3.52,6.56v0Z" style="fill:#D97D54"></path><path d="M420.15,220.09a11.06,11.06,0,0,1-1.84,3.35,12.19,12.19,0,0,1-2.86,2.83,20.09,20.09,0,0,1-7.7,3.4q-.4.09-.81.15l-2.24-1.29a21.19,21.19,0,0,0,2.24-.32,20.27,20.27,0,0,0,7-2.84,27.16,27.16,0,0,0,2.92-2.23,15.3,15.3,0,0,0,1.79-1.72,18.55,18.55,0,0,1,1.29-1.61C420.1,219.67,420.18,220,420.15,220.09Z" style="opacity:0.15"></path><path d="M453.83,186.42c.1.11.2.22.29.34V228.3C444.61,220,436,212.06,436,212.06v0l-2.81-12.59-6.42-28.84c9.87,2.55,15.28,4.44,21.32,9.89a57.15,57.15,0,0,1,4.31,4.34Z" style="fill:#ffbda7"></path><path d="M453.63,168.14l.49-1.09v28.23a17,17,0,0,1-4.41-2.76,14.15,14.15,0,0,1-2.53-2.75c-1.29-1.93-1.57-3.7-1-5l1.91-4.27,1.69-3.78,1.64-3.64.25-.56.06-.14,1.88-4.21Z" style="fill:#D97D54"></path><path d="M453.63,168.14l.49-1.09v28.23a17,17,0,0,1-4.41-2.76,14.15,14.15,0,0,1-2.53-2.75c-1.29-1.93-1.57-3.7-1-5l1.91-4.27,1.69-3.78,1.64-3.64.25-.56.06-.14,1.88-4.21Z" style="opacity:0.30000000000000004"></path><path d="M453.63,168.14l.49-1.09v18.72l-.29.65-3.09,6.9c-.36-.26-.7-.53-1-.8a14.15,14.15,0,0,1-2.53-2.75c-1.29-1.93-1.57-3.7-1-5l1.91-4.27,1.69-3.78,1.64-3.64.25-.56.06-.14,1.88-4.21Z" style="opacity:0.1"></path><path d="M454.12,174.51v.62c-.14-.07-.27-.16-.41-.24a12.1,12.1,0,0,1-2.28-1.81l.25-.56a10.52,10.52,0,0,0,1.2,1.11s0,0,0,0a11.66,11.66,0,0,0,1,.71Z" style="fill:#fff"></path><path d="M453.91,167.54l.21.34v1c-.18-.23-.34-.46-.5-.7v0Z" style="fill:#fff"></path><path d="M451.51,131.79l-2.28.24.06.42,2.3-.15Zm2.29-.21.08.53.24,0v-.54Zm-6.85.69-2.28.26,0,.2,2.3-.13Zm-4.56.54-.36.05.37,0Zm4.5-17.83-.09.3,2.18,1,.13-.38Zm-4.44-1.72v0l2.17,1,.06-.18Zm8.87,3.5-.15.46,2.2.94.16-.49Z" style="fill:#D97D54"></path></g></g></g></g><g id="freepik--Pictures--inject-200"><g id="freepik--Picture--inject-200"><g id="freepik--Frame--inject-200"><polygon points="329.44 98.17 327.43 99.38 286.08 75.5 288.1 74.3 329.44 98.17" style="fill:#fafafa"></polygon><polygon points="288.1 74.3 327.43 97 327.42 55.82 288.09 33.13 288.1 74.3" style="fill:#fff"></polygon><path d="M282.28,77.7l49,28.26V53.62l-49-28.26ZM286.08,32l41.34,23.87V99.38L286.08,75.51Z" style="fill:#f0f0f0"></path><polygon points="286.08 75.5 288.1 74.3 288.09 33.13 286.08 31.95 286.08 75.5" style="fill:#e0e0e0"></polygon><polygon points="282.28 25.36 284.32 24.19 333.27 52.45 331.23 53.63 282.28 25.36" style="fill:#fafafa"></polygon><polygon points="333.27 52.45 331.23 53.63 331.23 105.96 333.27 104.79 333.27 52.45" style="fill:#e0e0e0"></polygon></g><g id="freepik--Land--inject-200"><polygon points="289.63 73.07 325.89 94.01 325.89 83.54 316.82 62.6 311.18 67.84 313.21 76.61 300.69 49.84 289.63 62.6 289.63 73.07" style="fill:#f0f0f0"></polygon><path d="M311.52,52.5a5.91,5.91,0,0,1,2.68,4.64c0,1.71-1.2,2.41-2.68,1.55a5.91,5.91,0,0,1-2.68-4.64C308.84,52.34,310,51.64,311.52,52.5Z" style="fill:#f0f0f0"></path></g></g><g id="freepik--picture--inject-200"><g id="freepik--frame--inject-200"><polygon points="329.44 166.69 327.43 167.89 286.08 144.02 288.1 142.81 329.44 166.69" style="fill:#fafafa"></polygon><polygon points="288.1 142.81 327.43 165.52 327.42 124.33 288.09 101.64 288.1 142.81" style="fill:#fff"></polygon><path d="M282.28,146.21l49,28.26V122.14l-49-28.26Zm3.8-45.75,41.34,23.87v43.56L286.08,144Z" style="fill:#f0f0f0"></path><polygon points="286.08 144.02 288.1 142.81 288.09 101.64 286.08 100.46 286.08 144.02" style="fill:#e0e0e0"></polygon><polygon points="282.28 93.88 284.32 92.7 333.27 120.97 331.23 122.14 282.28 93.88" style="fill:#fafafa"></polygon><polygon points="333.27 120.97 331.23 122.14 331.23 174.47 333.27 173.3 333.27 120.97" style="fill:#e0e0e0"></polygon></g><g id="freepik--land--inject-200"><polygon points="289.63 141.58 325.89 162.52 325.89 152.05 316.82 131.12 311.18 136.35 313.21 145.12 300.69 118.35 289.63 131.12 289.63 141.58" style="fill:#f0f0f0"></polygon><path d="M311.52,121a5.91,5.91,0,0,1,2.68,4.64c0,1.71-1.2,2.41-2.68,1.55a5.91,5.91,0,0,1-2.68-4.64C308.84,120.85,310,120.15,311.52,121Z" style="fill:#f0f0f0"></path></g></g></g><g id="freepik--character--inject-200"><g id="freepik--character--inject-200"><g id="freepik--Bottom--inject-200"><path d="M191.26,243.6l-73.48.51c-16.92,14.45-44.44,60.69-58,103.48,0,29.34,42.25,53.13,94.37,53.13s94.37-23.79,94.37-53.13C234.55,302.9,202.32,255.26,191.26,243.6Z" style="fill:#D97D54"></path><path d="M181.92,302.39a322.92,322.92,0,0,0-4-36.7c-.59-3.45-1.23-6.89-2-10.3a62.66,62.66,0,0,0-2.65-9.84c-.27-.65-1.83-1.09-1.69,0,.41,3.16,1.35,6.27,2,9.4.62,3,1.22,5.93,1.76,8.91,1.07,6,1.93,11.94,2.62,17.94,1.42,12.2,2.27,24.46,2.84,36.73.33,7,.45,14.16,1.38,21.14,0,.29.38.44.41.06a157.67,157.67,0,0,0,.13-18.19Q182.45,312,181.92,302.39Zm-50.49-56.76c-16.9,18-27,41-34.8,64.1-2.32,6.86-4.5,13.74-6.36,20.74-.07.24.23.58.36.24,4.53-11.57,8.3-23.41,13-34.92a188.51,188.51,0,0,1,16.89-32.9,121.15,121.15,0,0,1,12.67-16C134,246,132.2,244.82,131.43,245.63Zm18.62,1.63a261,261,0,0,0-17.45,57.1c-1,5.66-1.82,11.36-2.45,17.08,0,.24.25.36.3.08a331.76,331.76,0,0,1,15.37-57.95c1.94-5.26,4-10.46,6.23-15.6C152.5,246.93,150.5,246.21,150.05,247.26Zm48.84,25.31a71.3,71.3,0,0,0-14.33-28.9c-.7-.86-2.46-.32-1.61.71a86.83,86.83,0,0,1,15.58,28.44C198.65,273.19,198.94,272.82,198.89,272.57Z" style="opacity:0.15"></path></g><g id="freepik--Top--inject-200"><g id="freepik--hair--inject-200"><path d="M154.19,127c1.31-2.85,2.43-6.08,4.6-8.43s5.1-3.63,7.63-5.43l8.16-5.79c9.89-6.19,13-20.45,9.44-27-8.15-15.08-27.72-19.25-38.16-19.12-19.81.24-29.1,6-30.46,16.34-6.07.41-9.39,3.49-12.31,8-3.59,5.51-4.61,15.69-2.75,22.17,1,3.45,2,7,.86,10.56-1.36,4.09-5.39,6.12-8.23,9s-5.52,7.21-4.89,11.52,4.23,7.69,2.41,12.16c-1.5,3.7-5.63,5.75-7.89,9-1.61,2.29-3.19,4.89-3.6,7.66-.57,3.83-.45,7.65,1.28,11.14,1,2.1,2.11,4.21,4.26,5.28a33,33,0,0,0,27,.94c9.44-3.94,14.13-12.64,18-21.58a47.16,47.16,0,0,0,3.76-15.7c.1-2.25-1.34-5.46-.34-7.59s5.8-3.15,7.92-4.15C144.89,134.07,152.17,131.41,154.19,127Z" style="fill:#37474f"></path><path d="M152.88,83.05C153.81,73.53,163.7,66.83,176,73s12.14,20.37,8.31,28.06,6.32,13.08,6.75,21.14-7.66,13.59-4,18.12,8.13-.16,7-3c2.69,2.34,1.85,6.71-1.35,8.68a10.06,10.06,0,0,1-9,.63c5.51,4.79,10.08,7.64,10,13.8s-5.92,12.1-15.66,12.11-29-3.91-32.34-12.26S152.88,83.05,152.88,83.05Z" style="fill:#263238"></path></g><g id="freepik--chest--inject-200"><g id="freepik--arm--inject-200"><path d="M194.94,77.32c-3-3.32-8.34-4.81-9.6-5.3-8.72-3.42-10.5-6.44-16.26-13.57-1-1.22-2-2.46-2.93-3.69A17.49,17.49,0,0,0,164.7,53c-.52-.51-.93-.95-.5-1.75a2.57,2.57,0,0,1,1.5-1.13,7.66,7.66,0,0,1,6.13.88,37.06,37.06,0,0,1,5.07,3.86c1.27,1,1.35-.83,1.26-1.71-.46-4.33-4.68-9.81-7.26-13.22-1.7-2.24-3.8-4.16-5.16-6.65a8.56,8.56,0,0,1-1.16-5c.13-1.17.65-2.21,2.1-1.9A6.06,6.06,0,0,1,169,27.81c1.47,1.19,2.81,2.23,4.81,2a15.06,15.06,0,0,1,3.77-.32,9.18,9.18,0,0,1,4.19,2c.51-.72,2.26-1,3.74-.05a40.38,40.38,0,0,1,10.18,8.83,39.28,39.28,0,0,1,6.81,12.39,42.28,42.28,0,0,0,4.25,8.74c2.37,3.31,9.55,8.57,20,18C237.34,89,244.43,93,250.9,104.67c4.26,7.73,1.8,11.11-9.17,23.82C224.05,149,194.86,180,194.86,180l-27-30.53a70.75,70.75,0,0,1,10.28-6.56c5.31-2.69,8.42-4.31,10.85-6.48C205.51,121.7,219.63,109,219.63,109S197.9,80.64,194.94,77.32Z" style="fill:#ffbda7"></path><path d="M198.22,176.39A70.23,70.23,0,0,0,181.7,161.2l2.56,6.8,10.6,12Z" style="fill:#f0997a"></path><path d="M182.18,56.15c8.08.57,11.23,4.82,13.27,7.45,0,0-1-4.62-4.59-6.59A10.26,10.26,0,0,0,182.18,56.15Z" style="fill:#f0997a"></path></g><path d="M196.54,179.44c-12-16.69-21.16-28.22-28.67-30-5.66,3.68-20,2.44-33.27,1.76,0,0-9,1.6-17.92,3.28s-15.75,7.36-17.26,16.84c-.68,4.26,4,20.7,10.45,38.81,4.91,13.72,7.66,18.11,9.32,26.32,28,12.54,65.85,7.21,70.64-.18,0,0,2.75-18.12,3.43-26.57C202.91,201.83,203.2,188.71,196.54,179.44Z" style="fill:#ffbda7"></path><path d="M106.2,199.48c4.94-4,6.88-6.27,11.3-14.19-1,12.64-4.83,17.14-7.63,24.85Z" style="fill:#f0997a"></path><g id="freepik--head--inject-200"><path d="M174.32,105.26c-2-17.09-5.74-23.77-10.23-26s-8.63-.48-11.21,3.81c-5.1-2.72-14.38-4.6-18.87,2-3.37,5-3.12,12.44-4,21.5-.91,9.72-5.83,10.13-7.21,7.7s-1.5-4.1-4.95-6.13c-3.22-1.9-7.7.1-9.45,3.09-2.14,3.63-1.54,9,3.39,14.13,2.22,2.31,5.11,4,8.64,3.24,3.37-.73,4.22-2.87,4.22-2.87s1,13.08,1.44,19-3.63,8.34-7.81,9.39c1.43,6.87,25.13,16.3,38.41,13.36,9.65-2.13,12.27-13.46,11.16-18.09-8.14,3.94-11.38-.53-11.54-2.22s-.54-5.63-.54-5.63c6.55-.48,9.7-2.1,12.67-4.41C172.39,134.14,176.39,122.69,174.32,105.26Z" style="fill:#ffbda7"></path><path d="M147.63,106.71a3.06,3.06,0,0,1-3.57,1.64c-1.53-.34-2.42-1.62-2-2.87a3.06,3.06,0,0,1,3.57-1.63C147.19,104.19,148.07,105.47,147.63,106.71Z" style="fill:#263238"></path><path d="M144.61,103.78c-1.81.1-2.81,2.57-4.58,1.65a2.61,2.61,0,0,0,3.56,1.33C144.4,106.32,144.61,103.78,144.61,103.78Z" style="fill:#263238"></path><path d="M169.88,98.72l-6.23-3A3.31,3.31,0,0,1,168.14,94,3.63,3.63,0,0,1,169.88,98.72Z" style="fill:#263238"></path><path d="M162.82,105.39a3,3,0,0,0,3.72,1.25c1.49-.5,2.24-1.87,1.67-3.07a3.06,3.06,0,0,0-3.73-1.26C163,102.82,162.24,104.19,162.82,105.39Z" style="fill:#263238"></path><path d="M165.51,102.14c1.81-.1,3.06,2.25,4.72,1.14a2.6,2.6,0,0,1-3.39,1.71C166,104.64,165.51,102.14,165.51,102.14Z" style="fill:#263238"></path><path d="M145.64,96.77l-6.74,3a3.53,3.53,0,0,1,1.74-4.84A3.88,3.88,0,0,1,145.64,96.77Z" style="fill:#263238"></path><path d="M145.86,122.05l9.69,2.44A5,5,0,0,1,149,128C146.37,127.21,145.28,124.78,145.86,122.05Z" style="fill:#b16668"></path><path d="M151.77,128.08a5.24,5.24,0,0,0-5.56-4.31,4,4,0,0,0-.48.09A4.43,4.43,0,0,0,149,128,5.61,5.61,0,0,0,151.77,128.08Z" style="fill:#f0997a"></path><polygon points="153.28 101.16 156.43 117.97 164.94 114.42 153.28 101.16" style="fill:#f0997a"></polygon><path d="M155.79,141.6A45.11,45.11,0,0,1,138.7,138c-4-1.67-7.41-6.38-9-10.69a15.75,15.75,0,0,0,7.18,12.83c7,4.67,19.26,5.41,19.26,5.41Z" style="fill:#f0997a"></path><path d="M115.53,123.33a2.3,2.3,0,1,0,2.13-2.46A2.3,2.3,0,0,0,115.53,123.33Z" style="fill:#fafafa"></path></g><path d="M118.56,237.21l-.78,6.9s11.68,8,41,7.21c27.14-.74,32.51-7.72,32.51-7.72l-.4-7.31Z" style="fill:#455a64"></path><path d="M172.36,212.59c-9.28-31-26-31-34.49-30.27-10.47.86-18.37,6.73-25,18.08l-4.3,7.47,10,29.34s17.72,9.76,50.09,5.69c18.76-2.35,22.21-6.61,22.21-6.61L194,210.42s11.66-6.85,8.64-21.78c-2-9.72-10.65-16.09-10.65-16.09S174.53,176.13,172.36,212.59Z" style="fill:#D97D54"></path><path d="M160.7,218.69a43.84,43.84,0,0,0-5.39,1.15,55.59,55.59,0,0,1-5.59.9,29.65,29.65,0,0,1-10.49-.79,25.59,25.59,0,0,1-8-3.77,34.4,34.4,0,0,1-3.31-2.72,19.94,19.94,0,0,1-2-2.07c-.5-.61-.91-1.34-1.47-1.9-.16-.16-.25.19-.22.3a13.36,13.36,0,0,0,2.1,3.87,15.33,15.33,0,0,0,3.24,3.39,25.24,25.24,0,0,0,8.75,4.44,29.82,29.82,0,0,0,10.88,1,30.62,30.62,0,0,0,5.95-1,16.44,16.44,0,0,0,5.58-2.49C160.8,218.93,160.86,218.68,160.7,218.69Z" style="opacity:0.15"></path><path d="M181,245.88c.25,3.09-3.51,5.93-8.42,6.34s-9.09-1.77-9.35-4.86,3.51-5.93,8.42-6.34S180.72,242.79,181,245.88Z" style="fill:#fff"></path><path d="M116.68,154.49c-13.78,2.38-19.9,4.25-29.11,13.44-9.53,9.5-36.79,38.13-36.79,38.13l-1.93,22.33s5.21,7.11,12.63,4c11.89-5.92,44.72-33,44.72-33Z" style="fill:#ffbda7"></path><path d="M70.76,219.1c5.85-11.37,4.83-27.68,3.49-37.53-3.45,3.57-7,7.3-10.33,10.75C64.69,206.77,66.56,227.26,70.76,219.1Z" style="fill:#f0997a"></path><path d="M71.08,115.37l23.55,53c.66,1.49.34,3.42-1.13,5.44a17.28,17.28,0,0,1-14.28,6.34c-2.48-.26-4.13-1.32-4.79-2.81l-23.55-53Z" style="fill:#D97D54"></path><path d="M71.08,115.37l23.55,53c.66,1.49.34,3.42-1.13,5.44a17.28,17.28,0,0,1-14.28,6.34c-2.48-.26-4.13-1.32-4.79-2.81l-23.55-53Z" style="opacity:0.30000000000000004"></path><path d="M89.47,177.44a14.54,14.54,0,0,0,4-3.6c1.47-2,1.79-4,1.13-5.44l-23.55-53-7.66,3.41Z" style="opacity:0.1"></path><path d="M70,120.81a17.24,17.24,0,0,1-14.28,6.34c-5-.53-6.59-4.22-3.66-8.25a17.31,17.31,0,0,1,14.28-6.34C71.25,113.09,72.89,116.78,70,120.81Z" style="fill:#D97D54"></path><path d="M70,120.81a17.24,17.24,0,0,1-14.28,6.34c-5-.53-6.59-4.22-3.66-8.25a17.31,17.31,0,0,1,14.28-6.34C71.25,113.09,72.89,116.78,70,120.81Z" style="opacity:0.1"></path><path d="M64.09,110.43l2.66,6a3.3,3.3,0,0,1-.68,3.28,10.45,10.45,0,0,1-8.62,3.83,3.33,3.33,0,0,1-2.89-1.7l-2.66-6Z" style="fill:#37474f"></path><path d="M63.64,121.87a8.69,8.69,0,0,0,2.43-2.17,3.3,3.3,0,0,0,.68-3.28l-2.66-6-4.62,2Z" style="fill:#263238"></path><path d="M63.41,113.71a10.41,10.41,0,0,1-8.62,3.82c-3-.31-4-2.54-2.21-5a10.42,10.42,0,0,1,8.62-3.83C64.19,109.05,65.18,111.28,63.41,113.71Z" style="fill:#455a64"></path><path d="M51.89,112l1.17,2.62a2.53,2.53,0,0,0,2.21,1.3A8,8,0,0,0,61.86,113a2.52,2.52,0,0,0,.52-2.51l-1.16-2.62Z" style="fill:#ebebeb"></path><path d="M57.75,115.61a6.71,6.71,0,0,1-2.48.27,2.53,2.53,0,0,1-2.21-1.3L51.89,112l3.54-1.57Z" style="fill:#e0e0e0"></path><path d="M54.1,113.26a8,8,0,0,0,6.6-2.93c1.36-1.86.6-3.57-1.69-3.81a8,8,0,0,0-6.6,2.93C51.06,111.31,51.82,113,54.1,113.26Z" style="fill:#fafafa"></path><path d="M50.59,104.94,53.3,111a1.7,1.7,0,0,0,1.49.88,5.37,5.37,0,0,0,4.45-2,1.72,1.72,0,0,0,.36-1.69l-2.71-6.1Z" style="fill:#ebebeb"></path><path d="M55.7,111.89a4,4,0,0,1-.91,0A1.7,1.7,0,0,1,53.3,111l-2.71-6.1,1.69-.74Z" style="fill:#e0e0e0"></path><path d="M52.09,105.82a5.39,5.39,0,0,0,4.45-2c.91-1.25.4-2.4-1.14-2.57a5.37,5.37,0,0,0-4.45,2C50,104.5,50.54,105.66,52.09,105.82Z" style="fill:#fafafa"></path><path d="M56.87,106.44A1.67,1.67,0,0,1,57,105c.28-.38.66-.34.86.1a1.65,1.65,0,0,1-.16,1.48A.46.46,0,0,1,56.87,106.44Z" style="fill:#455a64"></path><path d="M65,141.2l-.71.11a.15.15,0,0,0-.13.08.18.18,0,0,0,0,.16l.89,2a18.33,18.33,0,0,1-2.67.18c-.36-.8-.53-1.2-.89-2a.31.31,0,0,0-.13-.15.39.39,0,0,0-.2-.06l-.72,0a.17.17,0,0,0-.15.05.14.14,0,0,0,0,.15l2.22,5a.43.43,0,0,0,.14.16.39.39,0,0,0,.2.06c.29,0,.43,0,.72,0a.17.17,0,0,0,.14-.06.16.16,0,0,0,0-.15c-.37-.82-.55-1.22-.91-2a18.24,18.24,0,0,0,2.67-.18l.9,2.05a.3.3,0,0,0,.14.13.28.28,0,0,0,.19,0l.71-.11a.16.16,0,0,0,.13-.09.18.18,0,0,0,0-.16c-.89-2-1.34-3-2.23-5a.27.27,0,0,0-.13-.13A.22.22,0,0,0,65,141.2Zm15.07-2.34-1.65-1a3.26,3.26,0,0,0,.32-1.26,2.67,2.67,0,0,0-.24-1.19c-.24-.53-.54-.8-.93-.81a2.18,2.18,0,0,0-1.36.79,18.71,18.71,0,0,1-1.7,1.51.29.29,0,0,0-.1.16.25.25,0,0,0,0,.19l2.22,5a.17.17,0,0,0,.12.1.16.16,0,0,0,.16,0l.55-.45a.32.32,0,0,0,.1-.17.3.3,0,0,0,0-.19l-.8-1.81c.35-.31.52-.47.86-.8l1.61,1a.33.33,0,0,0,.15,0q.09,0,.21-.12c.2-.22.3-.34.49-.58a.35.35,0,0,0,.07-.15.31.31,0,0,0,0-.17A.12.12,0,0,0,80.1,138.86Zm-2.31-1.71a1.92,1.92,0,0,1-.49.73c-.37.36-.56.54-.94.87-.27-.59-.4-.88-.66-1.47.39-.34.58-.51.94-.87a1.56,1.56,0,0,1,.63-.43c.19,0,.34.07.47.36A1,1,0,0,1,77.79,137.15Zm-2.93,6.65c.24-.14.36-.22.6-.38a.28.28,0,0,0,.1-.34l-2.22-5a.18.18,0,0,0-.12-.11.17.17,0,0,0-.17,0l-.6.38a.25.25,0,0,0-.11.15.28.28,0,0,0,0,.18c.89,2,1.34,3,2.23,5a.19.19,0,0,0,.12.11A.17.17,0,0,0,74.86,143.8Zm-1,.31,0-.05c-1.62-1.54-2.45-2.34-4.1-4a.5.5,0,0,0-.2-.15.31.31,0,0,0-.23,0l-.89.34a.25.25,0,0,0-.17.14.39.39,0,0,0,0,.23c.06,2.24.08,3.33.11,5.48a.14.14,0,0,0,0,.06.27.27,0,0,0,.13.13.26.26,0,0,0,.19,0l.61-.15a.35.35,0,0,0,.21-.13.32.32,0,0,0,0-.16c0-.38,0-.58,0-1a19,19,0,0,0,2.58-1l.72.7a.42.42,0,0,0,.15.08.28.28,0,0,0,.24,0l.56-.29a.21.21,0,0,0,.12-.14A.28.28,0,0,0,73.88,144.11Zm-4.4-.25c0-1,0-1.51-.07-2.53.75.75,1.12,1.12,1.87,1.85C70.57,143.48,70.21,143.62,69.48,143.86ZM69,150.35a2,2,0,0,0-.41-.12c-.16,0-.35,0-.55-.06l-.48,0a2,2,0,0,1-.32,0,.77.77,0,0,1-.2-.09.4.4,0,0,1-.12-.16.26.26,0,0,1,0-.15.31.31,0,0,1,.09-.12l.16-.09a.85.85,0,0,1,.23,0,1,1,0,0,1,.47,0,1.05,1.05,0,0,1,.3.15.27.27,0,0,0,.1.06.21.21,0,0,0,.14,0l.33-.05a.13.13,0,0,0,.07,0,.07.07,0,0,0,0-.09.85.85,0,0,0-.2-.24,1.07,1.07,0,0,0-.36-.21,2,2,0,0,0-.49-.13,1.94,1.94,0,0,0-.59,0,2.12,2.12,0,0,0-.48.11,1,1,0,0,0-.32.22.53.53,0,0,0-.14.29.6.6,0,0,0,.06.36,1.25,1.25,0,0,0,.2.32,1.23,1.23,0,0,0,.28.23,1.88,1.88,0,0,0,.38.15,3.06,3.06,0,0,0,.47.08l.51.05a3.25,3.25,0,0,1,.37,0,1,1,0,0,1,.25.07.29.29,0,0,1,.13.14.19.19,0,0,1,0,.18.33.33,0,0,1-.11.13.75.75,0,0,1-.2.1l-.27,0a1.79,1.79,0,0,1-.32,0l-.23-.05a.76.76,0,0,1-.18-.09l-.13-.1a.3.3,0,0,0-.1-.07.3.3,0,0,0-.14,0l-.34,0a.11.11,0,0,0-.08,0,.14.14,0,0,0,0,.09,1.23,1.23,0,0,0,.28.33,1.64,1.64,0,0,0,.43.24,2.62,2.62,0,0,0,.5.13,2.44,2.44,0,0,0,.54,0,1.92,1.92,0,0,0,.55-.14,1.1,1.1,0,0,0,.35-.26.55.55,0,0,0,.14-.32.61.61,0,0,0-.06-.37.93.93,0,0,0-.2-.3A1.14,1.14,0,0,0,69,150.35Zm10.45-7.24-.26.25a.31.31,0,0,0-.09.14.46.46,0,0,0,0,.1l-.05,1.72-1.13-.71a.15.15,0,0,0-.08,0,.14.14,0,0,0-.13,0l-.29.22a.19.19,0,0,0,0,.09.17.17,0,0,0,0,.1l0,0c.67.44,1,.65,1.67,1.07l.42.93a.06.06,0,0,0,.06.05.1.1,0,0,0,.09,0l.29-.25a.13.13,0,0,0,0-.09.2.2,0,0,0,0-.11l-.42-.93c0-1,0-1.52.06-2.54,0,0,0,0,0-.05s0,0-.07,0S79.51,143.08,79.48,143.11Zm-2.89,2.53a.2.2,0,0,0-.1-.07.13.13,0,0,0-.11,0l-.44.28a.15.15,0,0,0-.08.1.21.21,0,0,0,0,.14c.07,1.31.11,2,.17,3.26a0,0,0,0,0,0,0,.11.11,0,0,0,.07.06.1.1,0,0,0,.09,0l.3-.17c.06,0,.09-.06.1-.1a.37.37,0,0,0,0-.09c0-.23,0-.35,0-.58.52-.3.77-.47,1.27-.81l.37.35a.2.2,0,0,0,.08,0,.13.13,0,0,0,.12,0l.28-.21a.16.16,0,0,0,.06-.08.14.14,0,0,0,0-.11v0Zm0,2.24c0-.59-.05-.89-.09-1.49l1,.92C77.07,147.55,76.9,147.66,76.54,147.88Zm-1.82.88a1.05,1.05,0,0,0,.28-.53,1.09,1.09,0,0,0-.1-.6.88.88,0,0,0-.58-.54,1.39,1.39,0,0,0-.92.14c-.45.21-.68.3-1.14.47l-.07.07a.14.14,0,0,0,0,.09l1.22,2.74a.11.11,0,0,0,.07.06.12.12,0,0,0,.1,0l.36-.14.07-.07a.17.17,0,0,0,0-.1c-.18-.39-.27-.59-.44-1l.58-.25,1,.72a.19.19,0,0,0,.09.05.19.19,0,0,0,.14,0l.36-.18a.13.13,0,0,0,.06-.07.12.12,0,0,0,0-.08s0,0,0,0C75.35,149.22,75.14,149.07,74.72,148.76Zm-.4-.45a.92.92,0,0,1-.35.27l-.64.27L73,148c.25-.1.38-.15.63-.27a1,1,0,0,1,.43-.1.45.45,0,0,1,.28.64Zm-3.83,0c-.49.14-.74.2-1.24.31a.11.11,0,0,0-.07.06.06.06,0,0,0,0,.08c.48,1.1.72,1.64,1.21,2.74a.16.16,0,0,0,.07.07.14.14,0,0,0,.11,0l.38-.08a.13.13,0,0,0,.07-.06.14.14,0,0,0,0-.09c-.17-.37-.25-.56-.42-.94.3-.07.45-.11.74-.2a1.16,1.16,0,0,0,.75-.5.88.88,0,0,0,0-.82,1,1,0,0,0-.61-.6A1.69,1.69,0,0,0,70.49,148.29Zm1,1.17a.76.76,0,0,1-.38.21l-.71.19L70,149l.72-.18a.89.89,0,0,1,.45,0,.42.42,0,0,1,.3.28A.37.37,0,0,1,71.46,149.46Z" style="fill:#fff"></path><path d="M88.68,155l-.28-.64a12,12,0,0,1-2.51,1.84c-4,2.18-8.61,2.32-12.79,3.89a14.3,14.3,0,0,0-5,2.9l0,.11A14.9,14.9,0,0,1,73,160.44c2.16-.69,4.4-1.07,6.61-1.54a25.55,25.55,0,0,0,6.44-2.09A13,13,0,0,0,88.68,155Z" style="fill:#fff"></path><path d="M67.25,161.2c3.1-2.88,7.18-4.25,11-6,3-1.37,6-3.12,8-5.84l-.33-.73a13,13,0,0,1-2.46,2.87c-3.16,2.73-7.17,4.1-10.84,5.95a21.9,21.9,0,0,0-5.35,3.64Z" style="fill:#fff"></path><path d="M81.88,80.47,81.49,80l-2,1.76.38.43Zm-7.93,7-.31-.34-2,1.78.27.31Zm15.83-14L89.35,73l-2,1.76.42.48ZM70,90.94l-.24-.27-2,1.78.2.22ZM85.83,77l-.41-.46-2,1.76.4.45ZM62,97.82l-1,.9,1-.86Zm15.6-14.26-2,1.78.33.37,2-1.74ZM63.89,96l.09.1,2-1.73-.14-.16ZM99.23,64.2l.39.43,2-1.76-.38-.43Zm15.9-13.94.14.16,1.94-1.79-.08-.1Zm-4,3.47.24.27,2-1.79-.2-.22Zm-4,3.48.31.34,2-1.78-.27-.3Zm12-10.4,0,0,1-.89ZM93.72,69.93l-.42-.47-2,1.75.44.48Zm3.94-3.53L97.25,66l-2,1.75.41.46Zm5.52-5.71.37.41,2-1.77-.34-.38ZM67.71,106.42l2.59.48.07-.45-2.61-.37Zm-2.59-.5,0-.19-2.62-.33Zm7.77,1.45,2.6.44.09-.58-2.6-.41Zm15.61,2.54,2.6.38.08-.47-2.59-.46Zm-10.41-1.66,2.6.44.1-.65-2.6-.41Zm5.2.85,2.6.4.1-.58-2.6-.44Zm10.42,1.56,2.61.35,0-.22-2.59-.49Zm5.23.68.41,0-.4-.08ZM93.83,91.19,91.32,92l.14.42,2.48-.87Zm2.52-.76.07.2,2.48-.91,0,0ZM83.79,94.38l-2.51.82.2.61L84,95Zm-15,5.06-2.49.88.11.31,2.51-.78Zm10-3.41-2.5.84.2.58,2.5-.81Zm10-3.27-2.51.81.19.55L89,93.28Zm-24.95,8.46-2.48.91,2.53-.74Zm9.94-3.51-2.49.86.16.5L74,98.26Z" style="fill:#D97D54"></path><path d="M83.4,133.21a40.62,40.62,0,0,0-2-3.6c-1-1.53-2.12-1.49-2.12-1.49s1-1.49.61-2.57a16.35,16.35,0,0,0-2.57-4.3c-.76-.6-4.09-1-6.12-1.08a6.17,6.17,0,0,0-5.35,2c-2.32,2.16-4.14,4.36-4.39,4.09s.19-1.05,1.33-3.61,1.73-3.42,2.76-4.12,5.48-3.16,5.48-3.16l1.28,2.87s.77-3.62.54-4.47-2.42-4.24-4-4.62-3.73,1-7.26,3.12c-3.14,1.9-3.38,2.57-4.89,5.34s-2.51,5.28-3.26,4.69-3.06-7.91-3.06-7.91l1.74-6.51a40.15,40.15,0,0,0,3.17-4.13c1.94-3.15,1.06-5.21.31-5.89s-3.11,1-4.36,1.88c-2.44,1.68-3.7,2.75-4.71,4.59a53.28,53.28,0,0,0-3.47,7.88c-.83,2.26-.83,2.26.8,8.67,1.15,4.57,1.38,7.44,4.31,14.08a40.7,40.7,0,0,1,3,20c-.89,7.84-7.32,32.75-9.71,46.63-2.28,13.25.66,21.39,6,28.66,4.82,6.6,13.11,3.89,18.81-1.09,5.1-4.46,6.57-21.38,6.06-30.49-1.18-21.1-2.39-32.55-2-37.08a21.23,21.23,0,0,1,2.45-8.79c1-2.19.92-4.86-.08-8.95s-1.52-5.46-1.37-6.31,3.81-3.46,5.07-4.23,1.65-.2,4,.94S83.64,133.57,83.4,133.21ZM73,128.06c-1,.4-6.45,4.43-6.19,3.95a47.2,47.2,0,0,1,5.76-5.32c1-.64,3.49-.14,3.49-.14l.45,1.07A15.58,15.58,0,0,0,73,128.06Z" style="fill:#ffbda7"></path></g></g></g></g><g id="freepik--Sink--inject-200"><g id="freepik--bathroom-sink--inject-200"><g id="freepik--Table--inject-200"><polygon points="225.75 424.39 341.5 357.57 341.5 421.93 225.75 488.76 225.75 424.39" style="fill:#37474f"></polygon><polygon points="225.75 424.39 137.92 373.69 137.92 438.05 225.75 488.76 225.75 424.39" style="fill:#263238"></polygon><polygon points="225.75 452.57 341.5 385.74 341.5 357.57 225.75 424.39 137.92 373.69 137.92 401.86 225.75 452.57" style="opacity:0.15"></polygon><polygon points="91.68 380.74 285.61 268.76 402.2 336.07 208.27 448.05 91.68 380.74" style="fill:#D97D54"></polygon><polygon points="91.68 380.74 285.61 268.76 402.2 336.07 208.27 448.05 91.68 380.74" style="fill:#fff;opacity:0.9"></polygon><polygon points="208.27 454.79 208.27 448.05 91.68 380.74 91.68 387.47 208.27 454.79" style="fill:#D97D54"></polygon><polygon points="208.27 454.79 208.27 448.05 91.68 380.74 91.68 387.47 208.27 454.79" style="fill:#fff;opacity:0.5"></polygon><polygon points="402.2 336.07 402.2 342.8 208.27 454.79 208.27 448.05 402.2 336.07" style="fill:#D97D54"></polygon><polygon points="402.2 336.07 402.2 342.8 208.27 454.79 208.27 448.05 402.2 336.07" style="fill:#fff;opacity:0.7000000000000001"></polygon></g><g id="freepik--hair-spray--inject-200"><path id="freepik--shadow--inject-200" d="M301.06,296.91c-6.73,3.88-17.64,3.88-24.37,0s-6.72-10.18,0-14.07,17.64-3.88,24.37,0S307.79,293,301.06,296.91Z" style="fill:#D97D54;opacity:0.2"></path><g id="freepik--Spray--inject-200"><path d="M301.2,222.84v65.63c0,1.85-1.22,3.7-3.66,5.1-4.88,2.82-12.8,2.82-17.68,0-2.44-1.4-3.66-3.25-3.66-5.1V222.84Z" style="fill:#D97D54"></path><path d="M301.2,222.84v65.63c0,1.85-1.22,3.7-3.66,5.1-4.88,2.82-12.8,2.82-17.68,0-2.44-1.4-3.66-3.25-3.66-5.1V222.84Z" style="opacity:0.30000000000000004"></path><path d="M291.71,295.45a16.39,16.39,0,0,0,5.83-1.88c2.44-1.4,3.66-3.25,3.66-5.1V222.84h-9.49Z" style="opacity:0.1"></path><path d="M297.54,227.94c-4.88,2.82-12.8,2.82-17.68,0s-4.88-7.39,0-10.2,12.8-2.82,17.68,0S302.42,225.12,297.54,227.94Z" style="fill:#D97D54"></path><path d="M297.54,227.94c-4.88,2.82-12.8,2.82-17.68,0s-4.88-7.39,0-10.2,12.8-2.82,17.68,0S302.42,225.12,297.54,227.94Z" style="opacity:0.1"></path><path d="M296.24,214.52v7.41A3.73,3.73,0,0,1,294,225a11.78,11.78,0,0,1-10.66,0,3.75,3.75,0,0,1-2.21-3.08v-7.41Z" style="fill:#37474f"></path><path d="M290.52,226.14A9.79,9.79,0,0,0,294,225a3.73,3.73,0,0,0,2.21-3.08v-7.41h-5.72Z" style="fill:#263238"></path><path d="M294,217.6a11.78,11.78,0,0,1-10.66,0c-2.95-1.7-2.95-4.46,0-6.16a11.78,11.78,0,0,1,10.66,0C297,213.14,297,215.9,294,217.6Z" style="fill:#455a64"></path><path d="M294.47,210.5v3.24a2.86,2.86,0,0,1-1.69,2.36,9,9,0,0,1-8.16,0,2.86,2.86,0,0,1-1.69-2.36V210.5Z" style="fill:#ebebeb"></path><path d="M290.09,217a7.81,7.81,0,0,0,2.69-.87,2.86,2.86,0,0,0,1.69-2.36V210.5h-4.38Z" style="fill:#e0e0e0"></path><path d="M292.78,212.86a9,9,0,0,1-8.16,0c-2.26-1.3-2.26-3.41,0-4.71a9,9,0,0,1,8.16,0C295,209.45,295,211.56,292.78,212.86Z" style="fill:#fafafa"></path><path d="M292.6,202.65v7.55a1.92,1.92,0,0,1-1.15,1.59,6.06,6.06,0,0,1-5.5,0,1.93,1.93,0,0,1-1.14-1.59v-7.55Z" style="fill:#ebebeb"></path><path d="M290.51,212.18a4,4,0,0,0,.94-.39,1.92,1.92,0,0,0,1.15-1.59v-7.55h-2.09Z" style="fill:#e0e0e0"></path><path d="M291.45,204.24a6.06,6.06,0,0,1-5.5,0c-1.52-.88-1.52-2.3,0-3.18a6.06,6.06,0,0,1,5.5,0C293,201.94,293,203.36,291.45,204.24Z" style="fill:#fafafa"></path><path d="M286.79,207.08a1.87,1.87,0,0,0-.84-1.46c-.47-.27-.85-.05-.85.49a1.87,1.87,0,0,0,.85,1.46C286.41,207.84,286.79,207.62,286.79,207.08Z" style="fill:#455a64"></path><path d="M296.24,201.82a3.74,3.74,0,0,0-2.21-3.08,11.78,11.78,0,0,0-10.66,0,3.74,3.74,0,0,0-2.21,3.08v12.69a3.74,3.74,0,0,0,2.21,3.09,11.78,11.78,0,0,0,10.66,0,3.76,3.76,0,0,0,2.21-3.08h0v-12.7Z" style="fill:#D97D54;opacity:0.30000000000000004"></path><path d="M294,204.9a11.78,11.78,0,0,1-10.66,0c-2.95-1.7-2.95-4.46,0-6.16a11.78,11.78,0,0,1,10.66,0C297,200.44,297,203.2,294,204.9Z" style="fill:#fff;opacity:0.30000000000000004"></path></g><path d="M284,260a.27.27,0,0,0,.1.06l.44.08a.12.12,0,0,0,.1,0,.13.13,0,0,0,0-.09v-1.17l.85.14a1.34,1.34,0,0,0,1-.18,1,1,0,0,0,.36-.85,1.2,1.2,0,0,0-.36-.91,1.84,1.84,0,0,0-1-.42c-.57-.08-.86-.13-1.43-.25a.13.13,0,0,0-.1,0,.13.13,0,0,0,0,.09v3.38A.25.25,0,0,0,284,260Zm.68-2.84c.33.06.49.09.82.13a1,1,0,0,1,.49.18.5.5,0,0,1,.18.43.41.41,0,0,1-.18.39.83.83,0,0,1-.49.05l-.82-.13Zm8.3-.58a.17.17,0,0,0-.13,0l-.59.09a.2.2,0,0,0-.12.06.42.42,0,0,0-.08.15c-.52,1.39-.79,2.08-1.31,3.44,0,0,0,0,0,0a.13.13,0,0,0,0,.09.15.15,0,0,0,.11,0l.38,0a.18.18,0,0,0,.15-.06.24.24,0,0,0,.06-.09c.09-.24.14-.36.23-.61.68-.07,1-.13,1.69-.25l.23.53a.21.21,0,0,0,.06.08.15.15,0,0,0,.14,0l.39-.08a.2.2,0,0,0,.1-.07.21.21,0,0,0,0-.11,0,0,0,0,0,0,0l-1.3-3A.35.35,0,0,0,292.93,256.54Zm-1,2.41c.24-.63.35-.94.59-1.58l.58,1.4C292.63,258.85,292.39,258.89,291.92,259Zm3.44-.63v1.16a.09.09,0,0,0,0,.08.12.12,0,0,0,.1,0l.42-.13a.17.17,0,0,0,.1-.07.17.17,0,0,0,0-.11v-1.15c.49-1,.74-1.55,1.22-2.61a.07.07,0,0,0,0,0s0-.07,0-.08a.11.11,0,0,0-.1,0l-.38.14a.37.37,0,0,0-.16.1l-.06.1c-.33.71-.5,1.06-.84,1.75l-.85-1.24s0,0-.06-.07a.21.21,0,0,0-.16,0l-.39.1a.13.13,0,0,0-.1.06.16.16,0,0,0,0,.11s0,0,0,0C294.62,257.22,294.86,257.59,295.36,258.32Zm-.66-4.93a.3.3,0,0,0,.19,0l.77-.22a.38.38,0,0,0,.19-.13.33.33,0,0,0,.07-.21v-2.23c.51-.16.76-.24,1.26-.43.49.72.74,1.07,1.22,1.75a.36.36,0,0,0,.13.11c.05,0,.15,0,.27,0,.31-.14.47-.21.78-.37a.34.34,0,0,0,.14-.13.41.41,0,0,0,0-.18.15.15,0,0,0,0-.09c-.5-.69-.75-1-1.26-1.77a3.47,3.47,0,0,0,.9-1.15,3.16,3.16,0,0,0,.3-1.35c0-.66-.19-1.07-.59-1.26a2.45,2.45,0,0,0-1.76.19,19.89,19.89,0,0,1-2.45.78.39.39,0,0,0-.19.12.35.35,0,0,0-.07.21v6.19A.21.21,0,0,0,294.7,253.39Zm2.59-6.25a1.74,1.74,0,0,1,.85-.15c.21,0,.32.22.32.58a1.17,1.17,0,0,1-.32.86,2.17,2.17,0,0,1-.85.53c-.54.21-.82.3-1.37.47v-1.82C296.47,247.44,296.75,247.34,297.29,247.14Zm-5.42,6.78a.25.25,0,0,0,.19.05l.79-.12a.34.34,0,0,0,.19-.11.29.29,0,0,0,.07-.2v-6.19a.19.19,0,0,0-.08-.17.23.23,0,0,0-.18-.05c-.32.06-.48.08-.79.12a.31.31,0,0,0-.27.3v6.19A.25.25,0,0,0,291.87,253.92Zm-7.38-.14.7.12a.37.37,0,0,0,.28,0,.48.48,0,0,0,.11-.15c.16-.4.25-.6.42-1a19,19,0,0,0,3.11.17c.17.43.26.64.43,1.06a.46.46,0,0,0,.11.16.38.38,0,0,0,.27.07l.71,0a.34.34,0,0,0,.19-.09.29.29,0,0,0,.08-.19s0-.05,0-.07c-1-2.34-1.45-3.54-2.42-6a.66.66,0,0,0-.14-.25.37.37,0,0,0-.23-.09c-.44,0-.66,0-1.09-.06a.32.32,0,0,0-.23.06.54.54,0,0,0-.14.24c-1,2.33-1.45,3.48-2.4,5.71a.15.15,0,0,0,0,.07.34.34,0,0,0,.26.31Zm3.06-4.87c.44,1.11.65,1.67,1.09,2.77-.87,0-1.31,0-2.17-.12C286.9,250.51,287.12,250,287.55,248.91Zm-9.5,2.62a.64.64,0,0,0,.17.16l.74.35a.19.19,0,0,0,.18,0,.16.16,0,0,0,.07-.15v-2.53a20.2,20.2,0,0,0,2.84,1v2.53a.37.37,0,0,0,.08.21.36.36,0,0,0,.18.12l.78.21a.19.19,0,0,0,.18,0,.19.19,0,0,0,.08-.16v-6.2a.32.32,0,0,0-.08-.2.31.31,0,0,0-.18-.12l-.78-.21a.22.22,0,0,0-.18,0,.19.19,0,0,0-.08.16v2.47a20.2,20.2,0,0,1-2.84-1v-2.47a.35.35,0,0,0-.07-.21.46.46,0,0,0-.18-.16c-.3-.13-.44-.2-.74-.35a.2.2,0,0,0-.17,0,.16.16,0,0,0-.07.15v6.2A.38.38,0,0,0,278.05,251.53Zm12.11,7.08a1.21,1.21,0,0,0,.18-.66,1,1,0,0,0-.35-.83,1.57,1.57,0,0,0-1-.28c-.56,0-.84,0-1.39,0a.17.17,0,0,0-.1,0,.14.14,0,0,0-.05.1v3.38a.16.16,0,0,0,.05.11.13.13,0,0,0,.1,0l.44,0a.13.13,0,0,0,.1,0,.1.1,0,0,0,0-.09v-1.22h.72l.7,1.21.08.09a.21.21,0,0,0,.15,0l.46,0a.18.18,0,0,0,.09,0,.13.13,0,0,0,0-.08.14.14,0,0,0,0-.06l-.74-1.26A1.12,1.12,0,0,0,290.16,258.61Zm-.73-.23a1,1,0,0,1-.49.11h-.78v-1h.78a1.1,1.1,0,0,1,.49.09.4.4,0,0,1,.19.39A.44.44,0,0,1,289.43,258.38Zm-7.08.52a.68.68,0,0,1-.25,0l-.31-.07a1.39,1.39,0,0,1-.32-.14,1,1,0,0,1-.23-.16.7.7,0,0,1-.13-.17.65.65,0,0,1-.09-.16.36.36,0,0,0-.08-.12.29.29,0,0,0-.13-.08l-.36-.13a.09.09,0,0,0-.1,0s0,0,0,.08a1.25,1.25,0,0,0,.14.48,2.14,2.14,0,0,0,.32.44,2.09,2.09,0,0,0,.47.36,2.46,2.46,0,0,0,.55.25,2.32,2.32,0,0,0,.64.11,1.3,1.3,0,0,0,.47-.1.74.74,0,0,0,.3-.28.76.76,0,0,0,.11-.41,1.09,1.09,0,0,0-.07-.4,1.2,1.2,0,0,0-.22-.35,1.68,1.68,0,0,0-.37-.31,4.31,4.31,0,0,0-.54-.31l-.48-.26a2.41,2.41,0,0,1-.31-.2.93.93,0,0,1-.17-.19.46.46,0,0,1,0-.21.21.21,0,0,1,.05-.16.28.28,0,0,1,.14-.09.48.48,0,0,1,.21,0,.85.85,0,0,1,.26.05,1.15,1.15,0,0,1,.47.24.9.9,0,0,1,.24.29.36.36,0,0,0,.08.12.32.32,0,0,0,.13.07l.37.09a.11.11,0,0,0,.1,0,.08.08,0,0,0,0-.09.85.85,0,0,0-.1-.35,1.33,1.33,0,0,0-.27-.38,2.09,2.09,0,0,0-.45-.36,2.44,2.44,0,0,0-.61-.27,1.64,1.64,0,0,0-.54-.1,1.11,1.11,0,0,0-.43.07.68.68,0,0,0-.29.24.82.82,0,0,0-.1.4,1.44,1.44,0,0,0,.06.43,1.24,1.24,0,0,0,.19.36,1.42,1.42,0,0,0,.32.33,4.39,4.39,0,0,0,.45.3l.51.28a2.87,2.87,0,0,1,.36.21.92.92,0,0,1,.23.18.35.35,0,0,1,.07.21.25.25,0,0,1-.07.19A.3.3,0,0,1,282.35,258.9Zm.41,11.11a16.13,16.13,0,0,0-6.56.68v.14a16.68,16.68,0,0,1,6.33-.5c2.55.28,5,.92,7.55,1.44a28,28,0,0,0,7.61.79,13.8,13.8,0,0,0,3.51-.67v-.79a13.32,13.32,0,0,1-3.43.76C292.68,272.29,287.8,270.31,282.76,270Zm14.57-4.14c-4.51,1.38-9.28.95-13.93,1.19a24.47,24.47,0,0,0-7.2,1.3v.1c4.53-1.55,9.37-1.1,14.08-1.14,3.75,0,7.67-.45,10.92-2.38V264A14.61,14.61,0,0,1,297.33,265.87Z" style="fill:#fff"></path></g><g id="freepik--hair-spray--inject-200"><path id="freepik--shadow--inject-200" d="M334.87,316.77c-7.06,4.08-18.52,4.08-25.59,0s-7.07-10.7,0-14.78,18.53-4.08,25.59,0S341.94,312.69,334.87,316.77Z" style="fill:#D97D54;opacity:0.2"></path><g id="freepik--spray--inject-200"><path d="M331.74,313.35c-5.34,3.08-14,3.08-19.32,0-2.65-1.53-4-3.52-4-5.52V248c0-2,1.31-4,4-5.54,5.33-3.08,14-3.08,19.32,0,2.65,1.53,4,3.53,4,5.54v59.79C335.7,309.82,334.39,311.82,331.74,313.35Z" style="fill:#D97D54"></path><path d="M321.43,313.46c-5.32-1.73-6-23.84-6-32V243.66l.49-2.63a15.1,15.1,0,0,0-3.46,1.45c-2.66,1.53-4,3.53-4,5.54v59.81c0,2,1.32,4,4,5.52,5.33,3.08,14,3.08,19.32,0a10.21,10.21,0,0,0,2.11-1.59C332,312.86,326.72,315.17,321.43,313.46Z" style="opacity:0.15"></path><path d="M332.72,254.6c-5.88,3.39-15.41,3.39-21.29,0-2.92-1.69-4.37-3.89-4.37-6.09,0-1,0-2.45,0-3.45,0-2.21,1.44-4.42,4.37-6.11,5.88-3.4,15.41-3.4,21.29,0,2.93,1.68,4.38,3.89,4.38,6.1v3.44C337.1,250.7,335.65,252.91,332.72,254.6Z" style="fill:#37474f"></path><path d="M332.72,251.24c-5.88,3.39-15.41,3.39-21.29,0s-5.88-8.9,0-12.3,15.41-3.39,21.29,0S338.6,247.84,332.72,251.24Z" style="fill:#455a64"></path><path d="M331.74,249.28c-5.34,3.08-14,3.08-19.32,0-2.65-1.53-4-3.52-4-5.52V230.58c0-2,1.31-4,4-5.55,5.33-3.08,14-3.08,19.32,0,2.65,1.53,4,3.53,4,5.54v13.17C335.7,245.75,334.39,247.75,331.74,249.28Z" style="fill:#37474f"></path><path d="M331.74,236.18c-5.34,3.08-14,3.08-19.32,0s-5.34-8.07,0-11.15,14-3.08,19.32,0S337.07,233.1,331.74,236.18Z" style="fill:#455a64"></path></g><path d="M329.36,281.71V283a.1.1,0,0,0,0,.09.14.14,0,0,0,.11,0l.46-.14a.19.19,0,0,0,.1-.08.21.21,0,0,0,.05-.12v-1.26c.54-1.12.81-1.69,1.34-2.84,0,0,0,0,0-.06a.11.11,0,0,0-.05-.09.11.11,0,0,0-.1,0l-.43.15a.34.34,0,0,0-.16.12c0,.05-.07.08-.07.11l-.92,1.91-.93-1.36a.22.22,0,0,0-.07-.07.19.19,0,0,0-.17,0l-.43.11a.22.22,0,0,0-.16.19s0,0,0,0C328.54,280.5,328.81,280.91,329.36,281.71Zm-2.66-1.95a.2.2,0,0,0-.14,0l-.64.1a.18.18,0,0,0-.14.06.48.48,0,0,0-.08.16l-1.44,3.77s0,0,0,0a.14.14,0,0,0,.05.1.15.15,0,0,0,.11,0l.42,0a.25.25,0,0,0,.17-.07.21.21,0,0,0,.06-.1l.25-.66c.74-.09,1.11-.14,1.85-.28l.25.58a.24.24,0,0,0,.06.09.2.2,0,0,0,.16,0l.42-.09a.19.19,0,0,0,.11-.07.21.21,0,0,0,0-.12v0c-.56-1.31-.85-2-1.42-3.33A.32.32,0,0,0,326.7,279.76Zm-1.1,2.63.64-1.72c.26.61.38.92.64,1.52C326.37,282.29,326.11,282.32,325.6,282.39Zm3-6.08a.22.22,0,0,0,.2,0c.34-.08.51-.13.85-.23a.43.43,0,0,0,.2-.14.43.43,0,0,0,.08-.23V273.3c.55-.17.83-.26,1.37-.47.54.78.81,1.16,1.34,1.91a.36.36,0,0,0,.14.13c.06,0,.16,0,.29,0,.34-.15.51-.23.85-.4a.4.4,0,0,0,.15-.14.35.35,0,0,0,.07-.2.19.19,0,0,0,0-.1c-.55-.76-.82-1.15-1.38-1.94a3.71,3.71,0,0,0,1-1.26,3.4,3.4,0,0,0,.33-1.47c0-.72-.21-1.17-.65-1.37a2.64,2.64,0,0,0-1.92.21,21.9,21.9,0,0,1-2.68.85.34.34,0,0,0-.2.13.33.33,0,0,0-.09.22v6.77A.2.2,0,0,0,328.64,276.31Zm2.83-6.82a1.87,1.87,0,0,1,.93-.17c.23,0,.34.25.34.64a1.29,1.29,0,0,1-.34.94,2.51,2.51,0,0,1-.93.58c-.6.22-.9.32-1.5.51v-2C330.57,269.81,330.87,269.71,331.47,269.49Zm-5.93,7.4a.26.26,0,0,0,.21.06l.86-.13a.28.28,0,0,0,.2-.12.32.32,0,0,0,.09-.21v-6.78a.24.24,0,0,0-.29-.23l-.87.13a.37.37,0,0,0-.2.11.28.28,0,0,0-.08.21v6.77A.22.22,0,0,0,325.54,276.89Zm-15.1-2.61a.47.47,0,0,0,.19.18l.81.38a.21.21,0,0,0,.19,0,.18.18,0,0,0,.08-.16v-2.77a21.75,21.75,0,0,0,3.1,1.14v2.76a.4.4,0,0,0,.08.23.39.39,0,0,0,.2.14l.85.23a.23.23,0,0,0,.2,0,.2.2,0,0,0,.09-.18v-6.77a.33.33,0,0,0-.09-.22.34.34,0,0,0-.2-.13l-.85-.23a.23.23,0,0,0-.2,0,.21.21,0,0,0-.08.17v2.7a23,23,0,0,1-3.1-1.14v-2.7a.46.46,0,0,0-.08-.23.5.5,0,0,0-.19-.17l-.81-.38a.19.19,0,0,0-.19,0,.17.17,0,0,0-.08.16V274A.46.46,0,0,0,310.44,274.28Zm10.41,9.78.48,0a.15.15,0,0,0,.11,0,.16.16,0,0,0,.05-.11V282.6h.78c.31.53.46.8.77,1.32a.58.58,0,0,0,.08.1.29.29,0,0,0,.17.05l.5,0a.18.18,0,0,0,.1,0,.16.16,0,0,0,0-.09.13.13,0,0,0,0-.06c-.33-.55-.49-.82-.81-1.38a1.2,1.2,0,0,0,.57-.46,1.27,1.27,0,0,0,.2-.73,1.11,1.11,0,0,0-.38-.9,1.74,1.74,0,0,0-1.12-.3c-.61,0-.91,0-1.52,0a.15.15,0,0,0-.11,0,.16.16,0,0,0-.05.11v3.69a.18.18,0,0,0,.05.12A.16.16,0,0,0,320.85,284.06Zm1.49-3.25a1.09,1.09,0,0,1,.54.1.44.44,0,0,1,.2.42.48.48,0,0,1-.2.44,1.08,1.08,0,0,1-.54.12h-.85v-1.09Zm-7.2,1.53a.66.66,0,0,1-.28,0,1.3,1.3,0,0,1-.33-.07,1.5,1.5,0,0,1-.36-.15,1.24,1.24,0,0,1-.24-.17.83.83,0,0,1-.15-.19,1.62,1.62,0,0,1-.1-.18.41.41,0,0,0-.08-.13.54.54,0,0,0-.15-.09l-.39-.14a.11.11,0,0,0-.11,0,.09.09,0,0,0,0,.1,1.24,1.24,0,0,0,.15.51,2.26,2.26,0,0,0,.35.48,2.5,2.5,0,0,0,.51.4,3,3,0,0,0,.61.28,2.59,2.59,0,0,0,.69.11,1.29,1.29,0,0,0,.52-.11.8.8,0,0,0,.33-.3.84.84,0,0,0,.12-.45,1.22,1.22,0,0,0-.08-.43,1.15,1.15,0,0,0-.24-.39,1.81,1.81,0,0,0-.41-.34,4.41,4.41,0,0,0-.59-.34l-.52-.28c-.14-.08-.25-.16-.34-.22a.84.84,0,0,1-.18-.21.52.52,0,0,1-.05-.23.35.35,0,0,1,.05-.18.35.35,0,0,1,.16-.09.57.57,0,0,1,.23,0,1,1,0,0,1,.28.05,1.48,1.48,0,0,1,.52.26,1.46,1.46,0,0,1,.26.32.3.3,0,0,0,.09.13.37.37,0,0,0,.14.08l.41.1a.11.11,0,0,0,.11,0,.11.11,0,0,0,0-.1A1.31,1.31,0,0,0,316,280a1.78,1.78,0,0,0-.3-.41,2.21,2.21,0,0,0-.49-.39,2.76,2.76,0,0,0-.67-.3,2.25,2.25,0,0,0-.59-.11,1.32,1.32,0,0,0-.47.08.79.79,0,0,0-.31.26.87.87,0,0,0-.11.44,1.45,1.45,0,0,0,.07.47,1.2,1.2,0,0,0,.2.39,1.7,1.7,0,0,0,.35.36,5.2,5.2,0,0,0,.49.33l.55.3.41.23a1,1,0,0,1,.24.21.37.37,0,0,1,.08.22.28.28,0,0,1-.07.2A.42.42,0,0,1,315.14,282.34Zm1.75,1.15a.19.19,0,0,0,.11.07l.47.09a.12.12,0,0,0,.16-.12v-1.28c.37.07.56.1.93.15a1.42,1.42,0,0,0,1.1-.2,1.07,1.07,0,0,0,.39-.92,1.28,1.28,0,0,0-.39-1,1.89,1.89,0,0,0-1.1-.46c-.63-.09-.94-.15-1.56-.27a.14.14,0,0,0-.11,0,.12.12,0,0,0-.05.1v3.69A.17.17,0,0,0,316.89,283.49Zm1.64-2.95a1.11,1.11,0,0,1,.53.19.56.56,0,0,1,.2.47.43.43,0,0,1-.2.42.88.88,0,0,1-.53.06l-.9-.14v-1.15Zm-1-3.8.77.13c.14,0,.24,0,.29,0a.51.51,0,0,0,.12-.16c.19-.44.28-.66.46-1.1a21.59,21.59,0,0,0,3.41.18c.18.47.28.7.46,1.16a.53.53,0,0,0,.12.17.42.42,0,0,0,.3.08l.78-.05a.32.32,0,0,0,.2-.1.29.29,0,0,0,.09-.21s0-.05,0-.07c-1.06-2.56-1.59-3.87-2.64-6.54a1.08,1.08,0,0,0-.15-.27.36.36,0,0,0-.26-.09c-.48,0-.71,0-1.19-.07a.35.35,0,0,0-.26.07.91.91,0,0,0-.15.25c-1.05,2.56-1.58,3.8-2.62,6.25,0,0,0,0,0,.07a.33.33,0,0,0,.09.22A.37.37,0,0,0,317.48,276.74Zm3.34-5.32c.48,1.22.71,1.82,1.19,3a20.79,20.79,0,0,1-2.37-.13C320.11,273.16,320.35,272.59,320.82,271.42Zm-5.24,23.05a17.82,17.82,0,0,0-7.16.75v.15a18.33,18.33,0,0,1,6.92-.54c2.79.3,5.51,1,8.25,1.57a30.67,30.67,0,0,0,8.32.87,15.54,15.54,0,0,0,3.83-.73v-.86a15.06,15.06,0,0,1-3.75.82C326.42,297,321.09,294.8,315.58,294.47ZM331.51,290c-4.93,1.5-10.15,1-15.22,1.29a27.26,27.26,0,0,0-7.87,1.42v.11c4.95-1.69,10.24-1.19,15.38-1.24,4.1,0,8.39-.49,11.94-2.6v-1A15.8,15.8,0,0,1,331.51,290Z" style="fill:#fff"></path></g><g id="freepik--sink--inject-200"><path d="M301.6,379.79a14.14,14.14,0,0,0-12.6-.09c17.5-12.32,16.29-30.54-3.64-42-21.22-12.25-55.62-12.25-76.84,0s-21.22,32.11,0,44.36,55.62,12.25,76.84,0c.81-.46,1.58-.95,2.32-1.43-2.34,2-2,4.79,1.14,6.58a14.11,14.11,0,0,0,12.78,0C305.13,385.13,305.13,381.83,301.6,379.79Z" style="fill:#D97D54;opacity:0.2"></path><path d="M272.39,368.11c2.69-2.68,10.36-10.35,26.5-22.12H260.44a49.16,49.16,0,0,0-27,0H195c16.13,11.77,23.8,19.44,26.5,22.12l.22.22.44.43h0c5.05,4.73,14.26,7.9,24.78,7.9s19.73-3.17,24.78-7.9h0l.45-.43Z" style="fill:#e0e0e0"></path><path d="M272.39,368.11c2.69-2.68,10.36-10.35,26.5-22.12H260.44a49.16,49.16,0,0,0-27,0H195c16.13,11.77,23.8,19.44,26.5,22.12l.22.22.44.43h0c5.05,4.73,14.26,7.9,24.78,7.9s19.73-3.17,24.78-7.9h0l.45-.43Z" style="opacity:0.15"></path><ellipse cx="246.94" cy="323.47" rx="65.56" ry="36.91" style="fill:#fff"></ellipse><ellipse cx="246.94" cy="322.28" rx="60.21" ry="32.79" style="fill:#ebebeb"></ellipse><path d="M246.94,355.07a104.12,104.12,0,0,0,24.91-2.94c-5-4.8-14.3-8-24.91-8s-19.88,3.23-24.91,8A104.12,104.12,0,0,0,246.94,355.07Z" style="fill:#e0e0e0"></path><polygon points="291.5 335.74 265.5 320.73 272.93 316.45 298.92 331.45 291.5 335.74" style="fill:#455a64"></polygon><polygon points="291.5 335.74 298.92 331.45 294.24 328.75 286.81 333.04 291.5 335.74" style="opacity:0.05"></polygon><polygon points="265.5 320.73 254.37 322.88 261.79 318.59 272.93 316.45 265.5 320.73" style="fill:#37474f"></polygon><polygon points="254.37 327.17 265.5 325.02 291.5 340.03 291.5 335.74 265.5 320.73 254.37 322.88 254.37 327.17" style="fill:#263238"></polygon><polygon points="286.81 337.32 291.5 340.03 291.5 335.74 286.81 333.04 286.81 337.32" style="opacity:0.1"></polygon><path d="M301.27,382.88V318.17H289.14v64.71h0a3,3,0,0,0,1.78,2.47,9.47,9.47,0,0,0,8.58,0A3,3,0,0,0,301.27,382.88Z" style="fill:#37474f"></path><path d="M297,386.2a7.52,7.52,0,0,0,2.47-.85,3,3,0,0,0,1.77-2.47V318.17H297Z" style="opacity:0.1"></path><path d="M290.92,320.65a9.47,9.47,0,0,0,8.58,0c2.37-1.37,2.37-3.59,0-4.95a9.47,9.47,0,0,0-8.58,0C288.55,317.06,288.55,319.28,290.92,320.65Z" style="fill:#455a64"></path></g><g id="freepik--Towel--inject-200"><path d="M322.55,334.59v4.47a2,2,0,0,0,1,1.7l32,18.48a1.9,1.9,0,0,0,1.89.2l34-19.61a1.64,1.64,0,0,0,.69-1.51A5.53,5.53,0,0,0,389.5,334l-33-19Z" style="fill:#D97D54;opacity:0.2"></path><path d="M323.41,332.57v4.36a1.94,1.94,0,0,0,1,1.66l31.21,18a1.83,1.83,0,0,0,1.84.19l33.12-19.12a1.59,1.59,0,0,0,.68-1.47,5.38,5.38,0,0,0-2.53-4.18l-32.16-18.58Z" style="fill:#D97D54"></path><g style="opacity:0.30000000000000004"><path d="M323.41,332.57v4.36a1.94,1.94,0,0,0,1,1.66l31.21,18a1.83,1.83,0,0,0,1.84.19l33.12-19.12a1.59,1.59,0,0,0,.68-1.47,5.38,5.38,0,0,0-2.53-4.18l-32.16-18.58Z" style="fill:#fff"></path></g><polygon points="369.12 320.73 336 339.84 330 336.38 363.11 317.25 369.12 320.73" style="fill:#455a64"></polygon><path d="M355.58,351.14l-32.17-18.57v4.36a1.94,1.94,0,0,0,1,1.66l31.21,18c1.39.8,2.52.23,2.52-1.28A5.42,5.42,0,0,0,355.58,351.14Z" style="fill:#D97D54;opacity:0.6000000000000001"></path><path d="M354.11,352.12a1.79,1.79,0,0,1,.84,1.39c0,.5-.38.69-.84.43l-30.7-17.73v-1.82Z" style="opacity:0.2"></path></g><g id="freepik--hair-comb--inject-200"><path d="M119,374.49a7.84,7.84,0,0,1,7.06,0l30.6,17.67s35,20.15,35,20.15l-.68.44c-.38.25-3.27-.89-6.46-2.54l-21.78-11.28a8.32,8.32,0,0,0-8,.19l-6,3.5c-1.95,1.13-3.94,1.8-4.46,1.51s.66-1.44,2.61-2.57l5.43-3.14c1.95-1.12,3.11-2.28,2.59-2.58s-2.52.38-4.47,1.5L145,400.47c-2,1.12-4,1.79-4.46,1.5s.66-1.44,2.61-2.57l5.43-3.14c2-1.12,3.11-2.28,2.59-2.58s-2.51.38-4.46,1.5l-5.44,3.14c-1.95,1.13-3.95,1.8-4.46,1.5s.65-1.45,2.6-2.58l5.44-3.14c1.95-1.12,3.11-2.28,2.59-2.58s-2.52.38-4.47,1.5l-5.43,3.14c-1.95,1.13-3.95,1.8-4.46,1.51s.65-1.45,2.6-2.57l5.44-3.15c2-1.13,3.11-2.29,2.59-2.59s-2.52.37-4.47,1.5L133.83,394c-2,1.13-4,1.8-4.46,1.51s.65-1.45,2.6-2.57l5.46-3.16c1.95-1.13,3.11-2.28,2.59-2.58s-2.52.37-4.47,1.5l-5.45,3.16c-1.95,1.12-3.95,1.8-4.46,1.5s.65-1.45,2.6-2.58l5.46-3.14c2-1.13,3.11-2.29,2.59-2.59s-2.52.36-4.47,1.49l-5.45,3.16c-2,1.12-4,1.79-4.46,1.5s.65-1.46,2.6-2.58l5.46-3.14c1.95-1.13,3.11-2.28,2.59-2.58s-2.52.37-4.47,1.5l-5.45,3.14c-2,1.12-4,1.79-4.46,1.5s.65-1.46,2.6-2.58l5.46-3.15c2-1.12,3.11-2.27,2.59-2.57s-2.52.37-4.47,1.49l-5.45,3.15c-2,1.12-4,1.8-4.47,1.5s.64-1.44,2.59-2.56l5.48-3.16c1.95-1.13,3.11-2.28,2.59-2.58s-2.52.37-4.47,1.49l-5.48,3.17c-2,1.12-3.94,1.79-4.45,1.49s.65-1.45,2.6-2.57l5.47-3.17c2-1.12,3.12-2.28,2.6-2.57s-2.52.37-4.47,1.49l-5.48,3.16c-2,1.13-4,1.8-4.48,1.49s.64-1.46,2.59-2.59Z" style="fill:#D97D54;opacity:0.2"></path><path d="M119,372.31a7.84,7.84,0,0,1,7.06,0L156.7,390s35,20.15,35,20.15l-.68.44c-.38.25-3.27-.89-6.46-2.54l-21.78-11.28a8.32,8.32,0,0,0-8,.19l-6,3.51c-1.95,1.12-3.94,1.8-4.46,1.5s.66-1.44,2.61-2.57l5.43-3.13c1.95-1.13,3.11-2.29,2.59-2.58s-2.52.37-4.47,1.49L145,398.29c-2,1.12-4,1.79-4.46,1.5s.66-1.44,2.61-2.57l5.43-3.14c2-1.12,3.11-2.28,2.59-2.58s-2.51.38-4.46,1.5l-5.44,3.14c-1.95,1.13-3.95,1.8-4.46,1.5s.65-1.45,2.6-2.58l5.44-3.14c1.95-1.12,3.11-2.28,2.59-2.58s-2.52.38-4.47,1.5L137.56,394c-1.95,1.13-3.95,1.8-4.46,1.51s.65-1.44,2.6-2.57l5.44-3.15c2-1.13,3.11-2.29,2.59-2.59s-2.52.38-4.47,1.5l-5.43,3.14c-2,1.13-4,1.8-4.46,1.51s.65-1.44,2.6-2.57l5.46-3.16c1.95-1.12,3.11-2.28,2.59-2.58s-2.52.38-4.47,1.5l-5.45,3.16c-1.95,1.13-3.95,1.8-4.46,1.5s.65-1.45,2.6-2.58l5.46-3.14c2-1.13,3.11-2.28,2.59-2.59s-2.52.36-4.47,1.49l-5.45,3.16c-2,1.12-4,1.8-4.46,1.5s.65-1.45,2.6-2.58L130,383.3c1.95-1.13,3.11-2.28,2.59-2.58s-2.52.37-4.47,1.5l-5.45,3.14c-2,1.13-4,1.8-4.46,1.5s.65-1.46,2.6-2.58l5.46-3.14c2-1.13,3.11-2.28,2.59-2.58s-2.52.37-4.47,1.5l-5.45,3.14c-2,1.12-4,1.8-4.47,1.51s.64-1.45,2.59-2.57l5.48-3.16c1.95-1.13,3.11-2.28,2.59-2.58s-2.52.37-4.47,1.5l-5.48,3.16c-2,1.12-3.94,1.79-4.45,1.5s.65-1.46,2.6-2.58l5.47-3.16c2-1.13,3.12-2.28,2.6-2.58s-2.52.37-4.47,1.5l-5.48,3.16c-2,1.12-4,1.79-4.48,1.48s.64-1.46,2.59-2.58Z" style="fill:#455a64"></path></g><g id="freepik--hair-curling-iron--inject-200"><path d="M147.45,369.49,129.32,359l2-1.13,17.19,9.95a2.4,2.4,0,0,1,.44-.36,1.24,1.24,0,0,1,.93-.18h0l3.16,1.49a6.28,6.28,0,0,1,1-.79,2.72,2.72,0,0,1,2.06-.39h0l2.07.45a3.8,3.8,0,0,1,3.69-.29l1.4.81a3.15,3.15,0,0,1,1.48,1.95l31.68,18.29a3.19,3.19,0,0,1,2.31.24l1.39.8a3.37,3.37,0,0,1,1.64,2.55l36.42,24h0l.09.06h0a2,2,0,0,1,.73,1.73,6.17,6.17,0,0,1-2.79,4.84,2,2,0,0,1-1.9.23h0l-39-19.66a3.34,3.34,0,0,1-3-.14l-1.39-.8a3.1,3.1,0,0,1-1.3-1.7l-31.94-18.44a3,3,0,0,1-2.24-.35l-1.39-.8a3.88,3.88,0,0,1-1.62-3.58c0-.15,0-.31,0-.47L151.18,376h0a2.76,2.76,0,0,1-.64-1.94,5.1,5.1,0,0,1,.07-.87l-3-2.11h0a1.25,1.25,0,0,1-.29-.87A2.73,2.73,0,0,1,147.45,369.49Z" style="fill:#D97D54;opacity:0.2"></path><path d="M149.87,366.31a1,1,0,0,0,.85-.49,1,1,0,0,0-.36-1.34l-16.92-9.8a2.75,2.75,0,0,0-4.12,2.37V359l2-1.13v-.82a.77.77,0,0,1,.39-.68.79.79,0,0,1,.79,0l16.92,9.81A1,1,0,0,0,149.87,366.31Z"></path><path d="M147.28,365.57a3.46,3.46,0,0,1,1.56-2.71,1.24,1.24,0,0,1,.93-.18h0l5.3,2.49-2.7,4.67-4.8-3.4h0A1.23,1.23,0,0,1,147.28,365.57Z" style="fill:#455a64"></path><path d="M150.47,369.42a7.69,7.69,0,0,1,3.49-6A2.69,2.69,0,0,1,156,363h0l3.64.79-6,10.4-2.53-2.79h0A2.76,2.76,0,0,1,150.47,369.42Z" style="fill:#263238"></path><path d="M152.86,371.75a9.55,9.55,0,0,1,4.32-7.47c2.38-1.38,4.31-.26,4.31,2.49a9.56,9.56,0,0,1-4.31,7.48C154.8,375.62,152.86,374.51,152.86,371.75Z" style="fill:#37474f"></path><path d="M152.3,373.19a12.35,12.35,0,0,1,5.58-9.67,3.91,3.91,0,0,1,3.91-.39l1.51.87a3.91,3.91,0,0,1,1.63,3.59,12.35,12.35,0,0,1-5.58,9.67,3.9,3.9,0,0,1-3.92.38l-1.51-.87A3.88,3.88,0,0,1,152.3,373.19Z" style="fill:#455a64"></path><path d="M153.77,374a12.32,12.32,0,0,1,5.58-9.66c3.08-1.78,5.58-.34,5.58,3.22a12.35,12.35,0,0,1-5.58,9.67C156.26,379,153.77,377.59,153.77,374Z" style="fill:#37474f"></path><path d="M154.85,374a11,11,0,0,1,5-8.58,3.48,3.48,0,0,1,3.48-.34l33.9,19.57a3.46,3.46,0,0,1,1.44,3.19,10.93,10.93,0,0,1-5,8.58,3.48,3.48,0,0,1-3.48.34l-33.9-19.57A3.46,3.46,0,0,1,154.85,374Z" style="fill:#263238"></path><path d="M189.16,394.47a12.35,12.35,0,0,1,5.58-9.67,3.9,3.9,0,0,1,3.92-.38l1.5.87c1,.57,1.63,1.81,1.63,3.58a12.35,12.35,0,0,1-5.58,9.67,3.9,3.9,0,0,1-3.92.39l-1.5-.87A3.91,3.91,0,0,1,189.16,394.47Z" style="fill:#455a64"></path><path d="M190.63,395.32a12.35,12.35,0,0,1,5.58-9.67c3.08-1.78,5.58-.33,5.58,3.22a12.35,12.35,0,0,1-5.58,9.67C193.13,400.32,190.63,398.88,190.63,395.32Z" style="fill:#37474f"></path><path d="M191.52,394.8a10.37,10.37,0,0,1,4.69-8.12,3.24,3.24,0,0,1,3.38-.28h0l38.61,25.45-4,6.82L193,397.9h0A3.2,3.2,0,0,1,191.52,394.8Z" style="fill:#fafafa"></path><path d="M233.34,416.81a6.19,6.19,0,0,1,2.8-4.84c1.54-.89,2.79-.17,2.79,1.62a6.16,6.16,0,0,1-2.79,4.83C234.6,419.31,233.34,418.59,233.34,416.81Z" style="fill:#e0e0e0"></path><path d="M182,383.64a4.22,4.22,0,0,0,3.82,0,1.32,1.32,0,0,0,.78-1.09v-1.06a1.32,1.32,0,0,0-.78-1.09,4.22,4.22,0,0,0-3.82,0,1.32,1.32,0,0,0-.78,1.09v1.06A1.32,1.32,0,0,0,182,383.64Z" style="fill:#D97D54"></path><path d="M182,383.64a4.22,4.22,0,0,0,3.82,0,1.32,1.32,0,0,0,.78-1.09v-1.06a1.32,1.32,0,0,0-.78-1.09,4.22,4.22,0,0,0-3.82,0,1.32,1.32,0,0,0-.78,1.09v1.06A1.32,1.32,0,0,0,182,383.64Z" style="opacity:0.2"></path><ellipse cx="183.89" cy="381.5" rx="2.7" ry="1.56" style="fill:#D97D54"></ellipse><path d="M173.1,378.5a4.22,4.22,0,0,0,3.82,0,1.32,1.32,0,0,0,.78-1.09v-1.06a1.33,1.33,0,0,0-.78-1.1,4.22,4.22,0,0,0-3.82,0,1.33,1.33,0,0,0-.78,1.1v1.06A1.33,1.33,0,0,0,173.1,378.5Z" style="fill:#D97D54"></path><path d="M173.1,378.5a4.22,4.22,0,0,0,3.82,0,1.32,1.32,0,0,0,.78-1.09v-1.06a1.33,1.33,0,0,0-.78-1.1,4.22,4.22,0,0,0-3.82,0,1.33,1.33,0,0,0-.78,1.1v1.06A1.33,1.33,0,0,0,173.1,378.5Z" style="opacity:0.2"></path><path d="M173.1,377.45a4.22,4.22,0,0,0,3.82,0,1.16,1.16,0,0,0,0-2.2,4.22,4.22,0,0,0-3.82,0A1.16,1.16,0,0,0,173.1,377.45Z" style="fill:#D97D54"></path><path d="M164.19,373.37a4.19,4.19,0,0,0,3.81,0,1.31,1.31,0,0,0,.79-1.09v-1.06a1.34,1.34,0,0,0-.79-1.1,4.19,4.19,0,0,0-3.81,0,1.33,1.33,0,0,0-.78,1.1v1.06A1.33,1.33,0,0,0,164.19,373.37Z" style="fill:#D97D54"></path><path d="M164.19,373.37a4.19,4.19,0,0,0,3.81,0,1.31,1.31,0,0,0,.79-1.09v-1.06a1.34,1.34,0,0,0-.79-1.1,4.19,4.19,0,0,0-3.81,0,1.33,1.33,0,0,0-.78,1.1v1.06A1.33,1.33,0,0,0,164.19,373.37Z" style="opacity:0.2"></path><path d="M164.19,372.32a4.19,4.19,0,0,0,3.81,0,1.16,1.16,0,0,0,0-2.2,4.19,4.19,0,0,0-3.81,0A1.16,1.16,0,0,0,164.19,372.32Z" style="fill:#D97D54"></path></g></g></g></svg>